solid 
facet normal -0 0 1
 outer loop
  vertex 0 0 0
  vertex 0 1 0
  vertex -0.19509032 0.98078525 0
 endloop
endfacet
facet normal -0 0 1
 outer loop
  vertex 0 0 0
  vertex -0.19509032 0.98078525 0
  vertex -0.38268346 0.9238795 0
 endloop
endfacet
facet normal -0 0 1
 outer loop
  vertex 0 0 0
  vertex -0.38268346 0.9238795 0
  vertex -0.55557024 0.8314696 0
 endloop
endfacet
facet normal -0 0 1
 outer loop
  vertex 0 0 0
  vertex -0.55557024 0.8314696 0
  vertex -0.70710677 0.70710677 0
 endloop
endfacet
facet normal -0 0 1
 outer loop
  vertex 0 0 0
  vertex -0.70710677 0.70710677 0
  vertex -0.8314696 0.55557024 0
 endloop
endfacet
facet normal -0 0 1
 outer loop
  vertex 0 0 0
  vertex -0.8314696 0.55557024 0
  vertex -0.9238795 0.38268346 0
 endloop
endfacet
facet normal -0 0 1
 outer loop
  vertex 0 0 0
  vertex -0.9238795 0.38268346 0
  vertex -0.98078525 0.19509032 0
 endloop
endfacet
facet normal -0 0 1
 outer loop
  vertex 0 0 0
  vertex -0.98078525 0.19509032 0
  vertex -1 0 0
 endloop
endfacet
facet normal 0 -0 1
 outer loop
  vertex 0 0 0
  vertex -1 0 0
  vertex -0.98078525 -0.19509032 0
 endloop
endfacet
facet normal 0 -0 1
 outer loop
  vertex 0 0 0
  vertex -0.98078525 -0.19509032 0
  vertex -0.9238795 -0.38268346 0
 endloop
endfacet
facet normal 0 -0 1
 outer loop
  vertex 0 0 0
  vertex -0.9238795 -0.38268346 0
  vertex -0.8314696 -0.55557024 0
 endloop
endfacet
facet normal 0 -0 1
 outer loop
  vertex 0 0 0
  vertex -0.8314696 -0.55557024 0
  vertex -0.70710677 -0.70710677 0
 endloop
endfacet
facet normal 0 -0 1
 outer loop
  vertex 0 0 0
  vertex -0.70710677 -0.70710677 0
  vertex -0.55557024 -0.8314696 0
 endloop
endfacet
facet normal 0 -0 1
 outer loop
  vertex 0 0 0
  vertex -0.55557024 -0.8314696 0
  vertex -0.38268346 -0.9238795 0
 endloop
endfacet
facet normal 0 -0 1
 outer loop
  vertex 0 0 0
  vertex -0.38268346 -0.9238795 0
  vertex -0.19509032 -0.98078525 0
 endloop
endfacet
facet normal 0 -0 1
 outer loop
  vertex 0 0 0
  vertex -0.19509032 -0.98078525 0
  vertex 0 -1 0
 endloop
endfacet
facet normal 0 -0 1
 outer loop
  vertex 0 0 0
  vertex 0 -1 0
  vertex 0.19509032 -0.98078525 0
 endloop
endfacet
facet normal 0 0 1
 outer loop
  vertex 0 0 0
  vertex 0.19509032 -0.98078525 0
  vertex 0.38268346 -0.9238795 0
 endloop
endfacet
facet normal 0 0 1
 outer loop
  vertex 0 0 0
  vertex 0.38268346 -0.9238795 0
  vertex 0.55557024 -0.8314696 0
 endloop
endfacet
facet normal 0 0 1
 outer loop
  vertex 0 0 0
  vertex 0.55557024 -0.8314696 0
  vertex 0.70710677 -0.70710677 0
 endloop
endfacet
facet normal 0 0 1
 outer loop
  vertex 0 0 0
  vertex 0.70710677 -0.70710677 0
  vertex 0.8314696 -0.55557024 0
 endloop
endfacet
facet normal 0 0 1
 outer loop
  vertex 0 0 0
  vertex 0.8314696 -0.55557024 0
  vertex 0.9238795 -0.38268346 0
 endloop
endfacet
facet normal 0 0 1
 outer loop
  vertex 0 0 0
  vertex 0.9238795 -0.38268346 0
  vertex 0.98078525 -0.19509032 0
 endloop
endfacet
facet normal 0 0 1
 outer loop
  vertex 0 0 0
  vertex 0.98078525 -0.19509032 0
  vertex 1 0 0
 endloop
endfacet
facet normal 0 0 1
 outer loop
  vertex 0 0 0
  vertex 1 0 0
  vertex 0.98078525 0.19509032 0
 endloop
endfacet
facet normal 0 0 1
 outer loop
  vertex 0 0 0
  vertex 0.98078525 0.19509032 0
  vertex 0.9238795 0.38268346 0
 endloop
endfacet
facet normal 0 0 1
 outer loop
  vertex 0 0 0
  vertex 0.9238795 0.38268346 0
  vertex 0.8314696 0.55557024 0
 endloop
endfacet
facet normal 0 0 1
 outer loop
  vertex 0 0 0
  vertex 0.8314696 0.55557024 0
  vertex 0.70710677 0.70710677 0
 endloop
endfacet
facet normal 0 0 1
 outer loop
  vertex 0 0 0
  vertex 0.70710677 0.70710677 0
  vertex 0.55557024 0.8314696 0
 endloop
endfacet
facet normal 0 0 1
 outer loop
  vertex 0 0 0
  vertex 0.55557024 0.8314696 0
  vertex 0.38268346 0.9238795 0
 endloop
endfacet
facet normal 0 0 1
 outer loop
  vertex 0 0 0
  vertex 0.38268346 0.9238795 0
  vertex 0.19509032 0.98078525 0
 endloop
endfacet
facet normal 0 0 1
 outer loop
  vertex 0 0 0
  vertex 0.19509032 0.98078525 0
  vertex 0 1 0
 endloop
endfacet
endsolid 
