solid 
facet normal -0 -0 -1
 outer loop
  vertex 0 0 -1
  vertex 0 1 -1
  vertex 0.19509032 0.98078525 -1
 endloop
endfacet
facet normal 0 0 1
 outer loop
  vertex 0 0 1
  vertex 0.19509032 0.98078525 1
  vertex 0 1 1
 endloop
endfacet
facet normal 0.09801729 0.9951847 0
 outer loop
  vertex 0 1 -1
  vertex 0 1 1
  vertex 0.19509032 0.98078525 1
 endloop
endfacet
facet normal 0.09801729 0.9951847 -0
 outer loop
  vertex 0 1 -1
  vertex 0.19509032 0.98078525 1
  vertex 0.19509032 0.98078525 -1
 endloop
endfacet
facet normal -0 0 -1
 outer loop
  vertex 0 0 -1
  vertex 0.19509032 0.98078525 -1
  vertex 0.38268346 0.9238795 -1
 endloop
endfacet
facet normal 0 0 1
 outer loop
  vertex 0 0 1
  vertex 0.38268346 0.9238795 1
  vertex 0.19509032 0.98078525 1
 endloop
endfacet
facet normal 0.29028463 0.95694035 0
 outer loop
  vertex 0.19509032 0.98078525 -1
  vertex 0.19509032 0.98078525 1
  vertex 0.38268346 0.9238795 1
 endloop
endfacet
facet normal 0.29028463 0.95694035 -0
 outer loop
  vertex 0.19509032 0.98078525 -1
  vertex 0.38268346 0.9238795 1
  vertex 0.38268346 0.9238795 -1
 endloop
endfacet
facet normal -0 0 -1
 outer loop
  vertex 0 0 -1
  vertex 0.38268346 0.9238795 -1
  vertex 0.55557024 0.8314696 -1
 endloop
endfacet
facet normal 0 0 1
 outer loop
  vertex 0 0 1
  vertex 0.55557024 0.8314696 1
  vertex 0.38268346 0.9238795 1
 endloop
endfacet
facet normal 0.4713967 0.8819213 0
 outer loop
  vertex 0.38268346 0.9238795 -1
  vertex 0.38268346 0.9238795 1
  vertex 0.55557024 0.8314696 1
 endloop
endfacet
facet normal 0.4713967 0.8819213 -0
 outer loop
  vertex 0.38268346 0.9238795 -1
  vertex 0.55557024 0.8314696 1
  vertex 0.55557024 0.8314696 -1
 endloop
endfacet
facet normal -0 0 -1
 outer loop
  vertex 0 0 -1
  vertex 0.55557024 0.8314696 -1
  vertex 0.70710677 0.70710677 -1
 endloop
endfacet
facet normal 0 0 1
 outer loop
  vertex 0 0 1
  vertex 0.70710677 0.70710677 1
  vertex 0.55557024 0.8314696 1
 endloop
endfacet
facet normal 0.6343933 0.7730104 0
 outer loop
  vertex 0.55557024 0.8314696 -1
  vertex 0.55557024 0.8314696 1
  vertex 0.70710677 0.70710677 1
 endloop
endfacet
facet normal 0.6343933 0.7730104 -0
 outer loop
  vertex 0.55557024 0.8314696 -1
  vertex 0.70710677 0.70710677 1
  vertex 0.70710677 0.70710677 -1
 endloop
endfacet
facet normal -0 0 -1
 outer loop
  vertex 0 0 -1
  vertex 0.70710677 0.70710677 -1
  vertex 0.8314696 0.55557024 -1
 endloop
endfacet
facet normal 0 0 1
 outer loop
  vertex 0 0 1
  vertex 0.8314696 0.55557024 1
  vertex 0.70710677 0.70710677 1
 endloop
endfacet
facet normal 0.7730104 0.6343933 0
 outer loop
  vertex 0.70710677 0.70710677 -1
  vertex 0.70710677 0.70710677 1
  vertex 0.8314696 0.55557024 1
 endloop
endfacet
facet normal 0.7730104 0.6343933 -0
 outer loop
  vertex 0.70710677 0.70710677 -1
  vertex 0.8314696 0.55557024 1
  vertex 0.8314696 0.55557024 -1
 endloop
endfacet
facet normal -0 0 -1
 outer loop
  vertex 0 0 -1
  vertex 0.8314696 0.55557024 -1
  vertex 0.9238795 0.38268346 -1
 endloop
endfacet
facet normal 0 0 1
 outer loop
  vertex 0 0 1
  vertex 0.9238795 0.38268346 1
  vertex 0.8314696 0.55557024 1
 endloop
endfacet
facet normal 0.8819213 0.4713967 0
 outer loop
  vertex 0.8314696 0.55557024 -1
  vertex 0.8314696 0.55557024 1
  vertex 0.9238795 0.38268346 1
 endloop
endfacet
facet normal 0.8819213 0.4713967 -0
 outer loop
  vertex 0.8314696 0.55557024 -1
  vertex 0.9238795 0.38268346 1
  vertex 0.9238795 0.38268346 -1
 endloop
endfacet
facet normal -0 0 -1
 outer loop
  vertex 0 0 -1
  vertex 0.9238795 0.38268346 -1
  vertex 0.98078525 0.19509032 -1
 endloop
endfacet
facet normal 0 0 1
 outer loop
  vertex 0 0 1
  vertex 0.98078525 0.19509032 1
  vertex 0.9238795 0.38268346 1
 endloop
endfacet
facet normal 0.95694035 0.29028463 0
 outer loop
  vertex 0.9238795 0.38268346 -1
  vertex 0.9238795 0.38268346 1
  vertex 0.98078525 0.19509032 1
 endloop
endfacet
facet normal 0.95694035 0.29028463 -0
 outer loop
  vertex 0.9238795 0.38268346 -1
  vertex 0.98078525 0.19509032 1
  vertex 0.98078525 0.19509032 -1
 endloop
endfacet
facet normal -0 0 -1
 outer loop
  vertex 0 0 -1
  vertex 0.98078525 0.19509032 -1
  vertex 1 0 -1
 endloop
endfacet
facet normal 0 0 1
 outer loop
  vertex 0 0 1
  vertex 1 0 1
  vertex 0.98078525 0.19509032 1
 endloop
endfacet
facet normal 0.9951847 0.09801729 0
 outer loop
  vertex 0.98078525 0.19509032 -1
  vertex 0.98078525 0.19509032 1
  vertex 1 0 1
 endloop
endfacet
facet normal 0.9951847 0.09801729 -0
 outer loop
  vertex 0.98078525 0.19509032 -1
  vertex 1 0 1
  vertex 1 0 -1
 endloop
endfacet
facet normal 0 0 -1
 outer loop
  vertex 0 0 -1
  vertex 1 0 -1
  vertex 0.98078525 -0.19509032 -1
 endloop
endfacet
facet normal 0 0 1
 outer loop
  vertex 0 0 1
  vertex 0.98078525 -0.19509032 1
  vertex 1 0 1
 endloop
endfacet
facet normal 0.9951847 -0.09801729 0
 outer loop
  vertex 1 0 -1
  vertex 1 0 1
  vertex 0.98078525 -0.19509032 1
 endloop
endfacet
facet normal 0.9951847 -0.09801729 0
 outer loop
  vertex 1 0 -1
  vertex 0.98078525 -0.19509032 1
  vertex 0.98078525 -0.19509032 -1
 endloop
endfacet
facet normal 0 0 -1
 outer loop
  vertex 0 0 -1
  vertex 0.98078525 -0.19509032 -1
  vertex 0.9238795 -0.38268346 -1
 endloop
endfacet
facet normal 0 0 1
 outer loop
  vertex 0 0 1
  vertex 0.9238795 -0.38268346 1
  vertex 0.98078525 -0.19509032 1
 endloop
endfacet
facet normal 0.95694035 -0.29028463 0
 outer loop
  vertex 0.98078525 -0.19509032 -1
  vertex 0.98078525 -0.19509032 1
  vertex 0.9238795 -0.38268346 1
 endloop
endfacet
facet normal 0.95694035 -0.29028463 0
 outer loop
  vertex 0.98078525 -0.19509032 -1
  vertex 0.9238795 -0.38268346 1
  vertex 0.9238795 -0.38268346 -1
 endloop
endfacet
facet normal 0 0 -1
 outer loop
  vertex 0 0 -1
  vertex 0.9238795 -0.38268346 -1
  vertex 0.8314696 -0.55557024 -1
 endloop
endfacet
facet normal 0 0 1
 outer loop
  vertex 0 0 1
  vertex 0.8314696 -0.55557024 1
  vertex 0.9238795 -0.38268346 1
 endloop
endfacet
facet normal 0.8819213 -0.4713967 0
 outer loop
  vertex 0.9238795 -0.38268346 -1
  vertex 0.9238795 -0.38268346 1
  vertex 0.8314696 -0.55557024 1
 endloop
endfacet
facet normal 0.8819213 -0.4713967 0
 outer loop
  vertex 0.9238795 -0.38268346 -1
  vertex 0.8314696 -0.55557024 1
  vertex 0.8314696 -0.55557024 -1
 endloop
endfacet
facet normal 0 0 -1
 outer loop
  vertex 0 0 -1
  vertex 0.8314696 -0.55557024 -1
  vertex 0.70710677 -0.70710677 -1
 endloop
endfacet
facet normal 0 0 1
 outer loop
  vertex 0 0 1
  vertex 0.70710677 -0.70710677 1
  vertex 0.8314696 -0.55557024 1
 endloop
endfacet
facet normal 0.7730104 -0.6343933 0
 outer loop
  vertex 0.8314696 -0.55557024 -1
  vertex 0.8314696 -0.55557024 1
  vertex 0.70710677 -0.70710677 1
 endloop
endfacet
facet normal 0.7730104 -0.6343933 0
 outer loop
  vertex 0.8314696 -0.55557024 -1
  vertex 0.70710677 -0.70710677 1
  vertex 0.70710677 -0.70710677 -1
 endloop
endfacet
facet normal 0 0 -1
 outer loop
  vertex 0 0 -1
  vertex 0.70710677 -0.70710677 -1
  vertex 0.55557024 -0.8314696 -1
 endloop
endfacet
facet normal 0 0 1
 outer loop
  vertex 0 0 1
  vertex 0.55557024 -0.8314696 1
  vertex 0.70710677 -0.70710677 1
 endloop
endfacet
facet normal 0.6343933 -0.7730104 0
 outer loop
  vertex 0.70710677 -0.70710677 -1
  vertex 0.70710677 -0.70710677 1
  vertex 0.55557024 -0.8314696 1
 endloop
endfacet
facet normal 0.6343933 -0.7730104 0
 outer loop
  vertex 0.70710677 -0.70710677 -1
  vertex 0.55557024 -0.8314696 1
  vertex 0.55557024 -0.8314696 -1
 endloop
endfacet
facet normal 0 0 -1
 outer loop
  vertex 0 0 -1
  vertex 0.55557024 -0.8314696 -1
  vertex 0.38268346 -0.9238795 -1
 endloop
endfacet
facet normal 0 0 1
 outer loop
  vertex 0 0 1
  vertex 0.38268346 -0.9238795 1
  vertex 0.55557024 -0.8314696 1
 endloop
endfacet
facet normal 0.4713967 -0.8819213 0
 outer loop
  vertex 0.55557024 -0.8314696 -1
  vertex 0.55557024 -0.8314696 1
  vertex 0.38268346 -0.9238795 1
 endloop
endfacet
facet normal 0.4713967 -0.8819213 0
 outer loop
  vertex 0.55557024 -0.8314696 -1
  vertex 0.38268346 -0.9238795 1
  vertex 0.38268346 -0.9238795 -1
 endloop
endfacet
facet normal 0 0 -1
 outer loop
  vertex 0 0 -1
  vertex 0.38268346 -0.9238795 -1
  vertex 0.19509032 -0.98078525 -1
 endloop
endfacet
facet normal 0 0 1
 outer loop
  vertex 0 0 1
  vertex 0.19509032 -0.98078525 1
  vertex 0.38268346 -0.9238795 1
 endloop
endfacet
facet normal 0.29028463 -0.95694035 0
 outer loop
  vertex 0.38268346 -0.9238795 -1
  vertex 0.38268346 -0.9238795 1
  vertex 0.19509032 -0.98078525 1
 endloop
endfacet
facet normal 0.29028463 -0.95694035 0
 outer loop
  vertex 0.38268346 -0.9238795 -1
  vertex 0.19509032 -0.98078525 1
  vertex 0.19509032 -0.98078525 -1
 endloop
endfacet
facet normal 0 0 -1
 outer loop
  vertex 0 0 -1
  vertex 0.19509032 -0.98078525 -1
  vertex 0 -1 -1
 endloop
endfacet
facet normal 0 -0 1
 outer loop
  vertex 0 0 1
  vertex 0 -1 1
  vertex 0.19509032 -0.98078525 1
 endloop
endfacet
facet normal 0.09801729 -0.9951847 0
 outer loop
  vertex 0.19509032 -0.98078525 -1
  vertex 0.19509032 -0.98078525 1
  vertex 0 -1 1
 endloop
endfacet
facet normal 0.09801729 -0.9951847 0
 outer loop
  vertex 0.19509032 -0.98078525 -1
  vertex 0 -1 1
  vertex 0 -1 -1
 endloop
endfacet
facet normal 0 0 -1
 outer loop
  vertex 0 0 -1
  vertex 0 -1 -1
  vertex -0.19509032 -0.98078525 -1
 endloop
endfacet
facet normal 0 -0 1
 outer loop
  vertex 0 0 1
  vertex -0.19509032 -0.98078525 1
  vertex 0 -1 1
 endloop
endfacet
facet normal -0.09801729 -0.9951847 -0
 outer loop
  vertex 0 -1 -1
  vertex 0 -1 1
  vertex -0.19509032 -0.98078525 1
 endloop
endfacet
facet normal -0.09801729 -0.9951847 0
 outer loop
  vertex 0 -1 -1
  vertex -0.19509032 -0.98078525 1
  vertex -0.19509032 -0.98078525 -1
 endloop
endfacet
facet normal 0 0 -1
 outer loop
  vertex 0 0 -1
  vertex -0.19509032 -0.98078525 -1
  vertex -0.38268346 -0.9238795 -1
 endloop
endfacet
facet normal 0 -0 1
 outer loop
  vertex 0 0 1
  vertex -0.38268346 -0.9238795 1
  vertex -0.19509032 -0.98078525 1
 endloop
endfacet
facet normal -0.29028463 -0.95694035 -0
 outer loop
  vertex -0.19509032 -0.98078525 -1
  vertex -0.19509032 -0.98078525 1
  vertex -0.38268346 -0.9238795 1
 endloop
endfacet
facet normal -0.29028463 -0.95694035 0
 outer loop
  vertex -0.19509032 -0.98078525 -1
  vertex -0.38268346 -0.9238795 1
  vertex -0.38268346 -0.9238795 -1
 endloop
endfacet
facet normal 0 0 -1
 outer loop
  vertex 0 0 -1
  vertex -0.38268346 -0.9238795 -1
  vertex -0.55557024 -0.8314696 -1
 endloop
endfacet
facet normal 0 -0 1
 outer loop
  vertex 0 0 1
  vertex -0.55557024 -0.8314696 1
  vertex -0.38268346 -0.9238795 1
 endloop
endfacet
facet normal -0.4713967 -0.8819213 -0
 outer loop
  vertex -0.38268346 -0.9238795 -1
  vertex -0.38268346 -0.9238795 1
  vertex -0.55557024 -0.8314696 1
 endloop
endfacet
facet normal -0.4713967 -0.8819213 0
 outer loop
  vertex -0.38268346 -0.9238795 -1
  vertex -0.55557024 -0.8314696 1
  vertex -0.55557024 -0.8314696 -1
 endloop
endfacet
facet normal 0 0 -1
 outer loop
  vertex 0 0 -1
  vertex -0.55557024 -0.8314696 -1
  vertex -0.70710677 -0.70710677 -1
 endloop
endfacet
facet normal 0 -0 1
 outer loop
  vertex 0 0 1
  vertex -0.70710677 -0.70710677 1
  vertex -0.55557024 -0.8314696 1
 endloop
endfacet
facet normal -0.6343933 -0.7730104 -0
 outer loop
  vertex -0.55557024 -0.8314696 -1
  vertex -0.55557024 -0.8314696 1
  vertex -0.70710677 -0.70710677 1
 endloop
endfacet
facet normal -0.6343933 -0.7730104 0
 outer loop
  vertex -0.55557024 -0.8314696 -1
  vertex -0.70710677 -0.70710677 1
  vertex -0.70710677 -0.70710677 -1
 endloop
endfacet
facet normal 0 0 -1
 outer loop
  vertex 0 0 -1
  vertex -0.70710677 -0.70710677 -1
  vertex -0.8314696 -0.55557024 -1
 endloop
endfacet
facet normal 0 -0 1
 outer loop
  vertex 0 0 1
  vertex -0.8314696 -0.55557024 1
  vertex -0.70710677 -0.70710677 1
 endloop
endfacet
facet normal -0.7730104 -0.6343933 -0
 outer loop
  vertex -0.70710677 -0.70710677 -1
  vertex -0.70710677 -0.70710677 1
  vertex -0.8314696 -0.55557024 1
 endloop
endfacet
facet normal -0.7730104 -0.6343933 0
 outer loop
  vertex -0.70710677 -0.70710677 -1
  vertex -0.8314696 -0.55557024 1
  vertex -0.8314696 -0.55557024 -1
 endloop
endfacet
facet normal 0 0 -1
 outer loop
  vertex 0 0 -1
  vertex -0.8314696 -0.55557024 -1
  vertex -0.9238795 -0.38268346 -1
 endloop
endfacet
facet normal 0 -0 1
 outer loop
  vertex 0 0 1
  vertex -0.9238795 -0.38268346 1
  vertex -0.8314696 -0.55557024 1
 endloop
endfacet
facet normal -0.8819213 -0.4713967 -0
 outer loop
  vertex -0.8314696 -0.55557024 -1
  vertex -0.8314696 -0.55557024 1
  vertex -0.9238795 -0.38268346 1
 endloop
endfacet
facet normal -0.8819213 -0.4713967 0
 outer loop
  vertex -0.8314696 -0.55557024 -1
  vertex -0.9238795 -0.38268346 1
  vertex -0.9238795 -0.38268346 -1
 endloop
endfacet
facet normal 0 0 -1
 outer loop
  vertex 0 0 -1
  vertex -0.9238795 -0.38268346 -1
  vertex -0.98078525 -0.19509032 -1
 endloop
endfacet
facet normal 0 -0 1
 outer loop
  vertex 0 0 1
  vertex -0.98078525 -0.19509032 1
  vertex -0.9238795 -0.38268346 1
 endloop
endfacet
facet normal -0.95694035 -0.29028463 -0
 outer loop
  vertex -0.9238795 -0.38268346 -1
  vertex -0.9238795 -0.38268346 1
  vertex -0.98078525 -0.19509032 1
 endloop
endfacet
facet normal -0.95694035 -0.29028463 0
 outer loop
  vertex -0.9238795 -0.38268346 -1
  vertex -0.98078525 -0.19509032 1
  vertex -0.98078525 -0.19509032 -1
 endloop
endfacet
facet normal 0 0 -1
 outer loop
  vertex 0 0 -1
  vertex -0.98078525 -0.19509032 -1
  vertex -1 0 -1
 endloop
endfacet
facet normal 0 -0 1
 outer loop
  vertex 0 0 1
  vertex -1 0 1
  vertex -0.98078525 -0.19509032 1
 endloop
endfacet
facet normal -0.9951847 -0.09801729 -0
 outer loop
  vertex -0.98078525 -0.19509032 -1
  vertex -0.98078525 -0.19509032 1
  vertex -1 0 1
 endloop
endfacet
facet normal -0.9951847 -0.09801729 0
 outer loop
  vertex -0.98078525 -0.19509032 -1
  vertex -1 0 1
  vertex -1 0 -1
 endloop
endfacet
facet normal 0 -0 -1
 outer loop
  vertex 0 0 -1
  vertex -1 0 -1
  vertex -0.98078525 0.19509032 -1
 endloop
endfacet
facet normal -0 0 1
 outer loop
  vertex 0 0 1
  vertex -0.98078525 0.19509032 1
  vertex -1 0 1
 endloop
endfacet
facet normal -0.9951847 0.09801729 0
 outer loop
  vertex -1 0 -1
  vertex -1 0 1
  vertex -0.98078525 0.19509032 1
 endloop
endfacet
facet normal -0.9951847 0.09801729 0
 outer loop
  vertex -1 0 -1
  vertex -0.98078525 0.19509032 1
  vertex -0.98078525 0.19509032 -1
 endloop
endfacet
facet normal 0 -0 -1
 outer loop
  vertex 0 0 -1
  vertex -0.98078525 0.19509032 -1
  vertex -0.9238795 0.38268346 -1
 endloop
endfacet
facet normal -0 0 1
 outer loop
  vertex 0 0 1
  vertex -0.9238795 0.38268346 1
  vertex -0.98078525 0.19509032 1
 endloop
endfacet
facet normal -0.95694035 0.29028463 0
 outer loop
  vertex -0.98078525 0.19509032 -1
  vertex -0.98078525 0.19509032 1
  vertex -0.9238795 0.38268346 1
 endloop
endfacet
facet normal -0.95694035 0.29028463 0
 outer loop
  vertex -0.98078525 0.19509032 -1
  vertex -0.9238795 0.38268346 1
  vertex -0.9238795 0.38268346 -1
 endloop
endfacet
facet normal 0 -0 -1
 outer loop
  vertex 0 0 -1
  vertex -0.9238795 0.38268346 -1
  vertex -0.8314696 0.55557024 -1
 endloop
endfacet
facet normal -0 0 1
 outer loop
  vertex 0 0 1
  vertex -0.8314696 0.55557024 1
  vertex -0.9238795 0.38268346 1
 endloop
endfacet
facet normal -0.8819213 0.4713967 0
 outer loop
  vertex -0.9238795 0.38268346 -1
  vertex -0.9238795 0.38268346 1
  vertex -0.8314696 0.55557024 1
 endloop
endfacet
facet normal -0.8819213 0.4713967 0
 outer loop
  vertex -0.9238795 0.38268346 -1
  vertex -0.8314696 0.55557024 1
  vertex -0.8314696 0.55557024 -1
 endloop
endfacet
facet normal 0 -0 -1
 outer loop
  vertex 0 0 -1
  vertex -0.8314696 0.55557024 -1
  vertex -0.70710677 0.70710677 -1
 endloop
endfacet
facet normal -0 0 1
 outer loop
  vertex 0 0 1
  vertex -0.70710677 0.70710677 1
  vertex -0.8314696 0.55557024 1
 endloop
endfacet
facet normal -0.7730104 0.6343933 0
 outer loop
  vertex -0.8314696 0.55557024 -1
  vertex -0.8314696 0.55557024 1
  vertex -0.70710677 0.70710677 1
 endloop
endfacet
facet normal -0.7730104 0.6343933 0
 outer loop
  vertex -0.8314696 0.55557024 -1
  vertex -0.70710677 0.70710677 1
  vertex -0.70710677 0.70710677 -1
 endloop
endfacet
facet normal 0 -0 -1
 outer loop
  vertex 0 0 -1
  vertex -0.70710677 0.70710677 -1
  vertex -0.55557024 0.8314696 -1
 endloop
endfacet
facet normal -0 0 1
 outer loop
  vertex 0 0 1
  vertex -0.55557024 0.8314696 1
  vertex -0.70710677 0.70710677 1
 endloop
endfacet
facet normal -0.6343933 0.7730104 0
 outer loop
  vertex -0.70710677 0.70710677 -1
  vertex -0.70710677 0.70710677 1
  vertex -0.55557024 0.8314696 1
 endloop
endfacet
facet normal -0.6343933 0.7730104 0
 outer loop
  vertex -0.70710677 0.70710677 -1
  vertex -0.55557024 0.8314696 1
  vertex -0.55557024 0.8314696 -1
 endloop
endfacet
facet normal 0 -0 -1
 outer loop
  vertex 0 0 -1
  vertex -0.55557024 0.8314696 -1
  vertex -0.38268346 0.9238795 -1
 endloop
endfacet
facet normal -0 0 1
 outer loop
  vertex 0 0 1
  vertex -0.38268346 0.9238795 1
  vertex -0.55557024 0.8314696 1
 endloop
endfacet
facet normal -0.4713967 0.8819213 0
 outer loop
  vertex -0.55557024 0.8314696 -1
  vertex -0.55557024 0.8314696 1
  vertex -0.38268346 0.9238795 1
 endloop
endfacet
facet normal -0.4713967 0.8819213 0
 outer loop
  vertex -0.55557024 0.8314696 -1
  vertex -0.38268346 0.9238795 1
  vertex -0.38268346 0.9238795 -1
 endloop
endfacet
facet normal 0 -0 -1
 outer loop
  vertex 0 0 -1
  vertex -0.38268346 0.9238795 -1
  vertex -0.19509032 0.98078525 -1
 endloop
endfacet
facet normal -0 0 1
 outer loop
  vertex 0 0 1
  vertex -0.19509032 0.98078525 1
  vertex -0.38268346 0.9238795 1
 endloop
endfacet
facet normal -0.29028463 0.95694035 0
 outer loop
  vertex -0.38268346 0.9238795 -1
  vertex -0.38268346 0.9238795 1
  vertex -0.19509032 0.98078525 1
 endloop
endfacet
facet normal -0.29028463 0.95694035 0
 outer loop
  vertex -0.38268346 0.9238795 -1
  vertex -0.19509032 0.98078525 1
  vertex -0.19509032 0.98078525 -1
 endloop
endfacet
facet normal 0 -0 -1
 outer loop
  vertex 0 0 -1
  vertex -0.19509032 0.98078525 -1
  vertex 0 1 -1
 endloop
endfacet
facet normal -0 0 1
 outer loop
  vertex 0 0 1
  vertex 0 1 1
  vertex -0.19509032 0.98078525 1
 endloop
endfacet
facet normal -0.09801729 0.9951847 0
 outer loop
  vertex -0.19509032 0.98078525 -1
  vertex -0.19509032 0.98078525 1
  vertex 0 1 1
 endloop
endfacet
facet normal -0.09801729 0.9951847 0
 outer loop
  vertex -0.19509032 0.98078525 -1
  vertex 0 1 1
  vertex 0 1 -1
 endloop
endfacet
endsolid 
