solid 
facet normal 0.049067747 0.99879545 0
 outer loop
  vertex 0 1 -1
  vertex 0 1 1
  vertex 0.09801714 0.9951847 1
 endloop
endfacet
facet normal 0.049067747 0.99879545 -0
 outer loop
  vertex 0 1 -1
  vertex 0.09801714 0.9951847 1
  vertex 0.09801714 0.9951847 -1
 endloop
endfacet
facet normal 0.1467307 0.9891765 0
 outer loop
  vertex 0.09801714 0.9951847 -1
  vertex 0.09801714 0.9951847 1
  vertex 0.19509032 0.98078525 1
 endloop
endfacet
facet normal 0.1467307 0.9891765 -0
 outer loop
  vertex 0.09801714 0.9951847 -1
  vertex 0.19509032 0.98078525 1
  vertex 0.19509032 0.98078525 -1
 endloop
endfacet
facet normal 0.24297969 0.9700314 0
 outer loop
  vertex 0.19509032 0.98078525 -1
  vertex 0.19509032 0.98078525 1
  vertex 0.2902847 0.95694035 1
 endloop
endfacet
facet normal 0.24297969 0.9700314 -0
 outer loop
  vertex 0.19509032 0.98078525 -1
  vertex 0.2902847 0.95694035 1
  vertex 0.2902847 0.95694035 -1
 endloop
endfacet
facet normal 0.33689025 0.94154394 0
 outer loop
  vertex 0.2902847 0.95694035 -1
  vertex 0.2902847 0.95694035 1
  vertex 0.38268346 0.9238795 1
 endloop
endfacet
facet normal 0.33689025 0.94154394 -0
 outer loop
  vertex 0.2902847 0.95694035 -1
  vertex 0.38268346 0.9238795 1
  vertex 0.38268346 0.9238795 -1
 endloop
endfacet
facet normal 0.42755517 0.90398926 0
 outer loop
  vertex 0.38268346 0.9238795 -1
  vertex 0.38268346 0.9238795 1
  vertex 0.47139674 0.88192123 1
 endloop
endfacet
facet normal 0.42755517 0.90398926 -0
 outer loop
  vertex 0.38268346 0.9238795 -1
  vertex 0.47139674 0.88192123 1
  vertex 0.47139674 0.88192123 -1
 endloop
endfacet
facet normal 0.5141026 0.85772866 0
 outer loop
  vertex 0.47139674 0.88192123 -1
  vertex 0.47139674 0.88192123 1
  vertex 0.55557024 0.8314696 1
 endloop
endfacet
facet normal 0.5141026 0.85772866 -0
 outer loop
  vertex 0.47139674 0.88192123 -1
  vertex 0.55557024 0.8314696 1
  vertex 0.55557024 0.8314696 -1
 endloop
endfacet
facet normal 0.59569913 0.80320764 0
 outer loop
  vertex 0.55557024 0.8314696 -1
  vertex 0.55557024 0.8314696 1
  vertex 0.63439333 0.77301043 1
 endloop
endfacet
facet normal 0.59569913 0.80320764 -0
 outer loop
  vertex 0.55557024 0.8314696 -1
  vertex 0.63439333 0.77301043 1
  vertex 0.63439333 0.77301043 -1
 endloop
endfacet
facet normal 0.6715592 0.7409509 0
 outer loop
  vertex 0.63439333 0.77301043 -1
  vertex 0.63439333 0.77301043 1
  vertex 0.70710677 0.70710677 1
 endloop
endfacet
facet normal 0.6715592 0.7409509 -0
 outer loop
  vertex 0.63439333 0.77301043 -1
  vertex 0.70710677 0.70710677 1
  vertex 0.70710677 0.70710677 -1
 endloop
endfacet
facet normal 0.7409509 0.6715592 0
 outer loop
  vertex 0.70710677 0.70710677 -1
  vertex 0.70710677 0.70710677 1
  vertex 0.77301043 0.63439333 1
 endloop
endfacet
facet normal 0.7409509 0.6715592 -0
 outer loop
  vertex 0.70710677 0.70710677 -1
  vertex 0.77301043 0.63439333 1
  vertex 0.77301043 0.63439333 -1
 endloop
endfacet
facet normal 0.80320764 0.59569913 0
 outer loop
  vertex 0.77301043 0.63439333 -1
  vertex 0.77301043 0.63439333 1
  vertex 0.8314696 0.55557024 1
 endloop
endfacet
facet normal 0.80320764 0.59569913 -0
 outer loop
  vertex 0.77301043 0.63439333 -1
  vertex 0.8314696 0.55557024 1
  vertex 0.8314696 0.55557024 -1
 endloop
endfacet
facet normal 0.85772866 0.5141026 0
 outer loop
  vertex 0.8314696 0.55557024 -1
  vertex 0.8314696 0.55557024 1
  vertex 0.88192123 0.47139674 1
 endloop
endfacet
facet normal 0.85772866 0.5141026 -0
 outer loop
  vertex 0.8314696 0.55557024 -1
  vertex 0.88192123 0.47139674 1
  vertex 0.88192123 0.47139674 -1
 endloop
endfacet
facet normal 0.90398926 0.42755517 0
 outer loop
  vertex 0.88192123 0.47139674 -1
  vertex 0.88192123 0.47139674 1
  vertex 0.9238795 0.38268346 1
 endloop
endfacet
facet normal 0.90398926 0.42755517 -0
 outer loop
  vertex 0.88192123 0.47139674 -1
  vertex 0.9238795 0.38268346 1
  vertex 0.9238795 0.38268346 -1
 endloop
endfacet
facet normal 0.94154394 0.33689025 0
 outer loop
  vertex 0.9238795 0.38268346 -1
  vertex 0.9238795 0.38268346 1
  vertex 0.95694035 0.2902847 1
 endloop
endfacet
facet normal 0.94154394 0.33689025 -0
 outer loop
  vertex 0.9238795 0.38268346 -1
  vertex 0.95694035 0.2902847 1
  vertex 0.95694035 0.2902847 -1
 endloop
endfacet
facet normal 0.9700314 0.24297969 0
 outer loop
  vertex 0.95694035 0.2902847 -1
  vertex 0.95694035 0.2902847 1
  vertex 0.98078525 0.19509032 1
 endloop
endfacet
facet normal 0.9700314 0.24297969 -0
 outer loop
  vertex 0.95694035 0.2902847 -1
  vertex 0.98078525 0.19509032 1
  vertex 0.98078525 0.19509032 -1
 endloop
endfacet
facet normal 0.9891765 0.1467307 0
 outer loop
  vertex 0.98078525 0.19509032 -1
  vertex 0.98078525 0.19509032 1
  vertex 0.9951847 0.09801714 1
 endloop
endfacet
facet normal 0.9891765 0.1467307 -0
 outer loop
  vertex 0.98078525 0.19509032 -1
  vertex 0.9951847 0.09801714 1
  vertex 0.9951847 0.09801714 -1
 endloop
endfacet
facet normal 0.99879545 0.049067747 0
 outer loop
  vertex 0.9951847 0.09801714 -1
  vertex 0.9951847 0.09801714 1
  vertex 1 0 1
 endloop
endfacet
facet normal 0.99879545 0.049067747 -0
 outer loop
  vertex 0.9951847 0.09801714 -1
  vertex 1 0 1
  vertex 1 0 -1
 endloop
endfacet
facet normal 0.99879545 -0.049067747 0
 outer loop
  vertex 1 0 -1
  vertex 1 0 1
  vertex 0.9951847 -0.09801714 1
 endloop
endfacet
facet normal 0.99879545 -0.049067747 0
 outer loop
  vertex 1 0 -1
  vertex 0.9951847 -0.09801714 1
  vertex 0.9951847 -0.09801714 -1
 endloop
endfacet
facet normal 0.9891765 -0.1467307 0
 outer loop
  vertex 0.9951847 -0.09801714 -1
  vertex 0.9951847 -0.09801714 1
  vertex 0.98078525 -0.19509032 1
 endloop
endfacet
facet normal 0.9891765 -0.1467307 0
 outer loop
  vertex 0.9951847 -0.09801714 -1
  vertex 0.98078525 -0.19509032 1
  vertex 0.98078525 -0.19509032 -1
 endloop
endfacet
facet normal 0.9700314 -0.24297969 0
 outer loop
  vertex 0.98078525 -0.19509032 -1
  vertex 0.98078525 -0.19509032 1
  vertex 0.95694035 -0.2902847 1
 endloop
endfacet
facet normal 0.9700314 -0.24297969 0
 outer loop
  vertex 0.98078525 -0.19509032 -1
  vertex 0.95694035 -0.2902847 1
  vertex 0.95694035 -0.2902847 -1
 endloop
endfacet
facet normal 0.94154394 -0.33689025 0
 outer loop
  vertex 0.95694035 -0.2902847 -1
  vertex 0.95694035 -0.2902847 1
  vertex 0.9238795 -0.38268346 1
 endloop
endfacet
facet normal 0.94154394 -0.33689025 0
 outer loop
  vertex 0.95694035 -0.2902847 -1
  vertex 0.9238795 -0.38268346 1
  vertex 0.9238795 -0.38268346 -1
 endloop
endfacet
facet normal 0.90398926 -0.42755517 0
 outer loop
  vertex 0.9238795 -0.38268346 -1
  vertex 0.9238795 -0.38268346 1
  vertex 0.88192123 -0.47139674 1
 endloop
endfacet
facet normal 0.90398926 -0.42755517 0
 outer loop
  vertex 0.9238795 -0.38268346 -1
  vertex 0.88192123 -0.47139674 1
  vertex 0.88192123 -0.47139674 -1
 endloop
endfacet
facet normal 0.85772866 -0.5141026 0
 outer loop
  vertex 0.88192123 -0.47139674 -1
  vertex 0.88192123 -0.47139674 1
  vertex 0.8314696 -0.55557024 1
 endloop
endfacet
facet normal 0.85772866 -0.5141026 0
 outer loop
  vertex 0.88192123 -0.47139674 -1
  vertex 0.8314696 -0.55557024 1
  vertex 0.8314696 -0.55557024 -1
 endloop
endfacet
facet normal 0.80320764 -0.59569913 0
 outer loop
  vertex 0.8314696 -0.55557024 -1
  vertex 0.8314696 -0.55557024 1
  vertex 0.77301043 -0.63439333 1
 endloop
endfacet
facet normal 0.80320764 -0.59569913 0
 outer loop
  vertex 0.8314696 -0.55557024 -1
  vertex 0.77301043 -0.63439333 1
  vertex 0.77301043 -0.63439333 -1
 endloop
endfacet
facet normal 0.7409509 -0.6715592 0
 outer loop
  vertex 0.77301043 -0.63439333 -1
  vertex 0.77301043 -0.63439333 1
  vertex 0.70710677 -0.70710677 1
 endloop
endfacet
facet normal 0.7409509 -0.6715592 0
 outer loop
  vertex 0.77301043 -0.63439333 -1
  vertex 0.70710677 -0.70710677 1
  vertex 0.70710677 -0.70710677 -1
 endloop
endfacet
facet normal 0.6715592 -0.7409509 0
 outer loop
  vertex 0.70710677 -0.70710677 -1
  vertex 0.70710677 -0.70710677 1
  vertex 0.63439333 -0.77301043 1
 endloop
endfacet
facet normal 0.6715592 -0.7409509 0
 outer loop
  vertex 0.70710677 -0.70710677 -1
  vertex 0.63439333 -0.77301043 1
  vertex 0.63439333 -0.77301043 -1
 endloop
endfacet
facet normal 0.59569913 -0.80320764 0
 outer loop
  vertex 0.63439333 -0.77301043 -1
  vertex 0.63439333 -0.77301043 1
  vertex 0.55557024 -0.8314696 1
 endloop
endfacet
facet normal 0.59569913 -0.80320764 0
 outer loop
  vertex 0.63439333 -0.77301043 -1
  vertex 0.55557024 -0.8314696 1
  vertex 0.55557024 -0.8314696 -1
 endloop
endfacet
facet normal 0.5141026 -0.85772866 0
 outer loop
  vertex 0.55557024 -0.8314696 -1
  vertex 0.55557024 -0.8314696 1
  vertex 0.47139674 -0.88192123 1
 endloop
endfacet
facet normal 0.5141026 -0.85772866 0
 outer loop
  vertex 0.55557024 -0.8314696 -1
  vertex 0.47139674 -0.88192123 1
  vertex 0.47139674 -0.88192123 -1
 endloop
endfacet
facet normal 0.42755517 -0.90398926 0
 outer loop
  vertex 0.47139674 -0.88192123 -1
  vertex 0.47139674 -0.88192123 1
  vertex 0.38268346 -0.9238795 1
 endloop
endfacet
facet normal 0.42755517 -0.90398926 0
 outer loop
  vertex 0.47139674 -0.88192123 -1
  vertex 0.38268346 -0.9238795 1
  vertex 0.38268346 -0.9238795 -1
 endloop
endfacet
facet normal 0.33689025 -0.94154394 0
 outer loop
  vertex 0.38268346 -0.9238795 -1
  vertex 0.38268346 -0.9238795 1
  vertex 0.2902847 -0.95694035 1
 endloop
endfacet
facet normal 0.33689025 -0.94154394 0
 outer loop
  vertex 0.38268346 -0.9238795 -1
  vertex 0.2902847 -0.95694035 1
  vertex 0.2902847 -0.95694035 -1
 endloop
endfacet
facet normal 0.24297969 -0.9700314 0
 outer loop
  vertex 0.2902847 -0.95694035 -1
  vertex 0.2902847 -0.95694035 1
  vertex 0.19509032 -0.98078525 1
 endloop
endfacet
facet normal 0.24297969 -0.9700314 0
 outer loop
  vertex 0.2902847 -0.95694035 -1
  vertex 0.19509032 -0.98078525 1
  vertex 0.19509032 -0.98078525 -1
 endloop
endfacet
facet normal 0.1467307 -0.9891765 0
 outer loop
  vertex 0.19509032 -0.98078525 -1
  vertex 0.19509032 -0.98078525 1
  vertex 0.09801714 -0.9951847 1
 endloop
endfacet
facet normal 0.1467307 -0.9891765 0
 outer loop
  vertex 0.19509032 -0.98078525 -1
  vertex 0.09801714 -0.9951847 1
  vertex 0.09801714 -0.9951847 -1
 endloop
endfacet
facet normal 0.049067747 -0.99879545 0
 outer loop
  vertex 0.09801714 -0.9951847 -1
  vertex 0.09801714 -0.9951847 1
  vertex 0 -1 1
 endloop
endfacet
facet normal 0.049067747 -0.99879545 0
 outer loop
  vertex 0.09801714 -0.9951847 -1
  vertex 0 -1 1
  vertex 0 -1 -1
 endloop
endfacet
facet normal -0.049067747 -0.99879545 -0
 outer loop
  vertex 0 -1 -1
  vertex 0 -1 1
  vertex -0.09801714 -0.9951847 1
 endloop
endfacet
facet normal -0.049067747 -0.99879545 0
 outer loop
  vertex 0 -1 -1
  vertex -0.09801714 -0.9951847 1
  vertex -0.09801714 -0.9951847 -1
 endloop
endfacet
facet normal -0.1467307 -0.9891765 -0
 outer loop
  vertex -0.09801714 -0.9951847 -1
  vertex -0.09801714 -0.9951847 1
  vertex -0.19509032 -0.98078525 1
 endloop
endfacet
facet normal -0.1467307 -0.9891765 0
 outer loop
  vertex -0.09801714 -0.9951847 -1
  vertex -0.19509032 -0.98078525 1
  vertex -0.19509032 -0.98078525 -1
 endloop
endfacet
facet normal -0.24297969 -0.9700314 -0
 outer loop
  vertex -0.19509032 -0.98078525 -1
  vertex -0.19509032 -0.98078525 1
  vertex -0.2902847 -0.95694035 1
 endloop
endfacet
facet normal -0.24297969 -0.9700314 0
 outer loop
  vertex -0.19509032 -0.98078525 -1
  vertex -0.2902847 -0.95694035 1
  vertex -0.2902847 -0.95694035 -1
 endloop
endfacet
facet normal -0.33689025 -0.94154394 -0
 outer loop
  vertex -0.2902847 -0.95694035 -1
  vertex -0.2902847 -0.95694035 1
  vertex -0.38268346 -0.9238795 1
 endloop
endfacet
facet normal -0.33689025 -0.94154394 0
 outer loop
  vertex -0.2902847 -0.95694035 -1
  vertex -0.38268346 -0.9238795 1
  vertex -0.38268346 -0.9238795 -1
 endloop
endfacet
facet normal -0.42755517 -0.90398926 -0
 outer loop
  vertex -0.38268346 -0.9238795 -1
  vertex -0.38268346 -0.9238795 1
  vertex -0.47139674 -0.88192123 1
 endloop
endfacet
facet normal -0.42755517 -0.90398926 0
 outer loop
  vertex -0.38268346 -0.9238795 -1
  vertex -0.47139674 -0.88192123 1
  vertex -0.47139674 -0.88192123 -1
 endloop
endfacet
facet normal -0.5141026 -0.85772866 -0
 outer loop
  vertex -0.47139674 -0.88192123 -1
  vertex -0.47139674 -0.88192123 1
  vertex -0.55557024 -0.8314696 1
 endloop
endfacet
facet normal -0.5141026 -0.85772866 0
 outer loop
  vertex -0.47139674 -0.88192123 -1
  vertex -0.55557024 -0.8314696 1
  vertex -0.55557024 -0.8314696 -1
 endloop
endfacet
facet normal -0.59569913 -0.80320764 -0
 outer loop
  vertex -0.55557024 -0.8314696 -1
  vertex -0.55557024 -0.8314696 1
  vertex -0.63439333 -0.77301043 1
 endloop
endfacet
facet normal -0.59569913 -0.80320764 0
 outer loop
  vertex -0.55557024 -0.8314696 -1
  vertex -0.63439333 -0.77301043 1
  vertex -0.63439333 -0.77301043 -1
 endloop
endfacet
facet normal -0.6715592 -0.7409509 -0
 outer loop
  vertex -0.63439333 -0.77301043 -1
  vertex -0.63439333 -0.77301043 1
  vertex -0.70710677 -0.70710677 1
 endloop
endfacet
facet normal -0.6715592 -0.7409509 0
 outer loop
  vertex -0.63439333 -0.77301043 -1
  vertex -0.70710677 -0.70710677 1
  vertex -0.70710677 -0.70710677 -1
 endloop
endfacet
facet normal -0.7409509 -0.6715592 -0
 outer loop
  vertex -0.70710677 -0.70710677 -1
  vertex -0.70710677 -0.70710677 1
  vertex -0.77301043 -0.63439333 1
 endloop
endfacet
facet normal -0.7409509 -0.6715592 0
 outer loop
  vertex -0.70710677 -0.70710677 -1
  vertex -0.77301043 -0.63439333 1
  vertex -0.77301043 -0.63439333 -1
 endloop
endfacet
facet normal -0.80320764 -0.59569913 -0
 outer loop
  vertex -0.77301043 -0.63439333 -1
  vertex -0.77301043 -0.63439333 1
  vertex -0.8314696 -0.55557024 1
 endloop
endfacet
facet normal -0.80320764 -0.59569913 0
 outer loop
  vertex -0.77301043 -0.63439333 -1
  vertex -0.8314696 -0.55557024 1
  vertex -0.8314696 -0.55557024 -1
 endloop
endfacet
facet normal -0.85772866 -0.5141026 -0
 outer loop
  vertex -0.8314696 -0.55557024 -1
  vertex -0.8314696 -0.55557024 1
  vertex -0.88192123 -0.47139674 1
 endloop
endfacet
facet normal -0.85772866 -0.5141026 0
 outer loop
  vertex -0.8314696 -0.55557024 -1
  vertex -0.88192123 -0.47139674 1
  vertex -0.88192123 -0.47139674 -1
 endloop
endfacet
facet normal -0.90398926 -0.42755517 -0
 outer loop
  vertex -0.88192123 -0.47139674 -1
  vertex -0.88192123 -0.47139674 1
  vertex -0.9238795 -0.38268346 1
 endloop
endfacet
facet normal -0.90398926 -0.42755517 0
 outer loop
  vertex -0.88192123 -0.47139674 -1
  vertex -0.9238795 -0.38268346 1
  vertex -0.9238795 -0.38268346 -1
 endloop
endfacet
facet normal -0.94154394 -0.33689025 -0
 outer loop
  vertex -0.9238795 -0.38268346 -1
  vertex -0.9238795 -0.38268346 1
  vertex -0.95694035 -0.2902847 1
 endloop
endfacet
facet normal -0.94154394 -0.33689025 0
 outer loop
  vertex -0.9238795 -0.38268346 -1
  vertex -0.95694035 -0.2902847 1
  vertex -0.95694035 -0.2902847 -1
 endloop
endfacet
facet normal -0.9700314 -0.24297969 -0
 outer loop
  vertex -0.95694035 -0.2902847 -1
  vertex -0.95694035 -0.2902847 1
  vertex -0.98078525 -0.19509032 1
 endloop
endfacet
facet normal -0.9700314 -0.24297969 0
 outer loop
  vertex -0.95694035 -0.2902847 -1
  vertex -0.98078525 -0.19509032 1
  vertex -0.98078525 -0.19509032 -1
 endloop
endfacet
facet normal -0.9891765 -0.1467307 -0
 outer loop
  vertex -0.98078525 -0.19509032 -1
  vertex -0.98078525 -0.19509032 1
  vertex -0.9951847 -0.09801714 1
 endloop
endfacet
facet normal -0.9891765 -0.1467307 0
 outer loop
  vertex -0.98078525 -0.19509032 -1
  vertex -0.9951847 -0.09801714 1
  vertex -0.9951847 -0.09801714 -1
 endloop
endfacet
facet normal -0.99879545 -0.049067747 -0
 outer loop
  vertex -0.9951847 -0.09801714 -1
  vertex -0.9951847 -0.09801714 1
  vertex -1 0 1
 endloop
endfacet
facet normal -0.99879545 -0.049067747 0
 outer loop
  vertex -0.9951847 -0.09801714 -1
  vertex -1 0 1
  vertex -1 0 -1
 endloop
endfacet
facet normal -0.99879545 0.049067747 0
 outer loop
  vertex -1 0 -1
  vertex -1 0 1
  vertex -0.9951847 0.09801714 1
 endloop
endfacet
facet normal -0.99879545 0.049067747 0
 outer loop
  vertex -1 0 -1
  vertex -0.9951847 0.09801714 1
  vertex -0.9951847 0.09801714 -1
 endloop
endfacet
facet normal -0.9891765 0.1467307 0
 outer loop
  vertex -0.9951847 0.09801714 -1
  vertex -0.9951847 0.09801714 1
  vertex -0.98078525 0.19509032 1
 endloop
endfacet
facet normal -0.9891765 0.1467307 0
 outer loop
  vertex -0.9951847 0.09801714 -1
  vertex -0.98078525 0.19509032 1
  vertex -0.98078525 0.19509032 -1
 endloop
endfacet
facet normal -0.9700314 0.24297969 0
 outer loop
  vertex -0.98078525 0.19509032 -1
  vertex -0.98078525 0.19509032 1
  vertex -0.95694035 0.2902847 1
 endloop
endfacet
facet normal -0.9700314 0.24297969 0
 outer loop
  vertex -0.98078525 0.19509032 -1
  vertex -0.95694035 0.2902847 1
  vertex -0.95694035 0.2902847 -1
 endloop
endfacet
facet normal -0.94154394 0.33689025 0
 outer loop
  vertex -0.95694035 0.2902847 -1
  vertex -0.95694035 0.2902847 1
  vertex -0.9238795 0.38268346 1
 endloop
endfacet
facet normal -0.94154394 0.33689025 0
 outer loop
  vertex -0.95694035 0.2902847 -1
  vertex -0.9238795 0.38268346 1
  vertex -0.9238795 0.38268346 -1
 endloop
endfacet
facet normal -0.90398926 0.42755517 0
 outer loop
  vertex -0.9238795 0.38268346 -1
  vertex -0.9238795 0.38268346 1
  vertex -0.88192123 0.47139674 1
 endloop
endfacet
facet normal -0.90398926 0.42755517 0
 outer loop
  vertex -0.9238795 0.38268346 -1
  vertex -0.88192123 0.47139674 1
  vertex -0.88192123 0.47139674 -1
 endloop
endfacet
facet normal -0.85772866 0.5141026 0
 outer loop
  vertex -0.88192123 0.47139674 -1
  vertex -0.88192123 0.47139674 1
  vertex -0.8314696 0.55557024 1
 endloop
endfacet
facet normal -0.85772866 0.5141026 0
 outer loop
  vertex -0.88192123 0.47139674 -1
  vertex -0.8314696 0.55557024 1
  vertex -0.8314696 0.55557024 -1
 endloop
endfacet
facet normal -0.80320764 0.59569913 0
 outer loop
  vertex -0.8314696 0.55557024 -1
  vertex -0.8314696 0.55557024 1
  vertex -0.77301043 0.63439333 1
 endloop
endfacet
facet normal -0.80320764 0.59569913 0
 outer loop
  vertex -0.8314696 0.55557024 -1
  vertex -0.77301043 0.63439333 1
  vertex -0.77301043 0.63439333 -1
 endloop
endfacet
facet normal -0.7409509 0.6715592 0
 outer loop
  vertex -0.77301043 0.63439333 -1
  vertex -0.77301043 0.63439333 1
  vertex -0.70710677 0.70710677 1
 endloop
endfacet
facet normal -0.7409509 0.6715592 0
 outer loop
  vertex -0.77301043 0.63439333 -1
  vertex -0.70710677 0.70710677 1
  vertex -0.70710677 0.70710677 -1
 endloop
endfacet
facet normal -0.6715592 0.7409509 0
 outer loop
  vertex -0.70710677 0.70710677 -1
  vertex -0.70710677 0.70710677 1
  vertex -0.63439333 0.77301043 1
 endloop
endfacet
facet normal -0.6715592 0.7409509 0
 outer loop
  vertex -0.70710677 0.70710677 -1
  vertex -0.63439333 0.77301043 1
  vertex -0.63439333 0.77301043 -1
 endloop
endfacet
facet normal -0.59569913 0.80320764 0
 outer loop
  vertex -0.63439333 0.77301043 -1
  vertex -0.63439333 0.77301043 1
  vertex -0.55557024 0.8314696 1
 endloop
endfacet
facet normal -0.59569913 0.80320764 0
 outer loop
  vertex -0.63439333 0.77301043 -1
  vertex -0.55557024 0.8314696 1
  vertex -0.55557024 0.8314696 -1
 endloop
endfacet
facet normal -0.5141026 0.85772866 0
 outer loop
  vertex -0.55557024 0.8314696 -1
  vertex -0.55557024 0.8314696 1
  vertex -0.47139674 0.88192123 1
 endloop
endfacet
facet normal -0.5141026 0.85772866 0
 outer loop
  vertex -0.55557024 0.8314696 -1
  vertex -0.47139674 0.88192123 1
  vertex -0.47139674 0.88192123 -1
 endloop
endfacet
facet normal -0.42755517 0.90398926 0
 outer loop
  vertex -0.47139674 0.88192123 -1
  vertex -0.47139674 0.88192123 1
  vertex -0.38268346 0.9238795 1
 endloop
endfacet
facet normal -0.42755517 0.90398926 0
 outer loop
  vertex -0.47139674 0.88192123 -1
  vertex -0.38268346 0.9238795 1
  vertex -0.38268346 0.9238795 -1
 endloop
endfacet
facet normal -0.33689025 0.94154394 0
 outer loop
  vertex -0.38268346 0.9238795 -1
  vertex -0.38268346 0.9238795 1
  vertex -0.2902847 0.95694035 1
 endloop
endfacet
facet normal -0.33689025 0.94154394 0
 outer loop
  vertex -0.38268346 0.9238795 -1
  vertex -0.2902847 0.95694035 1
  vertex -0.2902847 0.95694035 -1
 endloop
endfacet
facet normal -0.24297969 0.9700314 0
 outer loop
  vertex -0.2902847 0.95694035 -1
  vertex -0.2902847 0.95694035 1
  vertex -0.19509032 0.98078525 1
 endloop
endfacet
facet normal -0.24297969 0.9700314 0
 outer loop
  vertex -0.2902847 0.95694035 -1
  vertex -0.19509032 0.98078525 1
  vertex -0.19509032 0.98078525 -1
 endloop
endfacet
facet normal 0 0 1
 outer loop
  vertex 0.19509032 0.98078525 1
  vertex 0.09801714 0.9951847 1
  vertex 0 1 1
 endloop
endfacet
facet normal 0 0 1
 outer loop
  vertex 0 1 1
  vertex -0.09801714 0.9951847 1
  vertex -0.19509032 0.98078525 1
 endloop
endfacet
facet normal 0 0 1
 outer loop
  vertex -0.19509032 0.98078525 1
  vertex -0.2902847 0.95694035 1
  vertex -0.38268346 0.9238795 1
 endloop
endfacet
facet normal 0 0 1
 outer loop
  vertex -0.38268346 0.9238795 1
  vertex -0.47139674 0.88192123 1
  vertex -0.55557024 0.8314696 1
 endloop
endfacet
facet normal 0 0 1
 outer loop
  vertex -0.55557024 0.8314696 1
  vertex -0.63439333 0.77301043 1
  vertex -0.70710677 0.70710677 1
 endloop
endfacet
facet normal 0 0 1
 outer loop
  vertex -0.70710677 0.70710677 1
  vertex -0.77301043 0.63439333 1
  vertex -0.8314696 0.55557024 1
 endloop
endfacet
facet normal 0 0 1
 outer loop
  vertex -0.8314696 0.55557024 1
  vertex -0.88192123 0.47139674 1
  vertex -0.9238795 0.38268346 1
 endloop
endfacet
facet normal 0 0 1
 outer loop
  vertex -0.9238795 0.38268346 1
  vertex -0.95694035 0.2902847 1
  vertex -0.98078525 0.19509032 1
 endloop
endfacet
facet normal 0 0 1
 outer loop
  vertex -0.98078525 0.19509032 1
  vertex -0.9951847 0.09801714 1
  vertex -1 0 1
 endloop
endfacet
facet normal 0 0 1
 outer loop
  vertex -1 0 1
  vertex -0.9951847 -0.09801714 1
  vertex -0.98078525 -0.19509032 1
 endloop
endfacet
facet normal 0 0 1
 outer loop
  vertex -0.98078525 -0.19509032 1
  vertex -0.95694035 -0.2902847 1
  vertex -0.9238795 -0.38268346 1
 endloop
endfacet
facet normal 0 0 1
 outer loop
  vertex -0.9238795 -0.38268346 1
  vertex -0.88192123 -0.47139674 1
  vertex -0.8314696 -0.55557024 1
 endloop
endfacet
facet normal 0 0 1
 outer loop
  vertex -0.8314696 -0.55557024 1
  vertex -0.77301043 -0.63439333 1
  vertex -0.70710677 -0.70710677 1
 endloop
endfacet
facet normal 0 0 1
 outer loop
  vertex -0.70710677 -0.70710677 1
  vertex -0.63439333 -0.77301043 1
  vertex -0.55557024 -0.8314696 1
 endloop
endfacet
facet normal 0 0 1
 outer loop
  vertex -0.55557024 -0.8314696 1
  vertex -0.47139674 -0.88192123 1
  vertex -0.38268346 -0.9238795 1
 endloop
endfacet
facet normal 0 0 1
 outer loop
  vertex -0.38268346 -0.9238795 1
  vertex -0.2902847 -0.95694035 1
  vertex -0.19509032 -0.98078525 1
 endloop
endfacet
facet normal 0 0 1
 outer loop
  vertex -0.19509032 -0.98078525 1
  vertex -0.09801714 -0.9951847 1
  vertex 0 -1 1
 endloop
endfacet
facet normal 0 0 1
 outer loop
  vertex 0 -1 1
  vertex 0.09801714 -0.9951847 1
  vertex 0.19509032 -0.98078525 1
 endloop
endfacet
facet normal 0 0 1
 outer loop
  vertex 0.19509032 -0.98078525 1
  vertex 0.2902847 -0.95694035 1
  vertex 0.38268346 -0.9238795 1
 endloop
endfacet
facet normal 0 0 1
 outer loop
  vertex 0.38268346 -0.9238795 1
  vertex 0.47139674 -0.88192123 1
  vertex 0.55557024 -0.8314696 1
 endloop
endfacet
facet normal 0 0 1
 outer loop
  vertex 0.55557024 -0.8314696 1
  vertex 0.63439333 -0.77301043 1
  vertex 0.70710677 -0.70710677 1
 endloop
endfacet
facet normal 0 0 1
 outer loop
  vertex 0.70710677 -0.70710677 1
  vertex 0.77301043 -0.63439333 1
  vertex 0.8314696 -0.55557024 1
 endloop
endfacet
facet normal 0 0 1
 outer loop
  vertex 0.8314696 -0.55557024 1
  vertex 0.88192123 -0.47139674 1
  vertex 0.9238795 -0.38268346 1
 endloop
endfacet
facet normal 0 0 1
 outer loop
  vertex 0.9238795 -0.38268346 1
  vertex 0.95694035 -0.2902847 1
  vertex 0.98078525 -0.19509032 1
 endloop
endfacet
facet normal 0 0 1
 outer loop
  vertex 0.98078525 -0.19509032 1
  vertex 0.9951847 -0.09801714 1
  vertex 1 0 1
 endloop
endfacet
facet normal 0 0 1
 outer loop
  vertex 1 0 1
  vertex 0.9951847 0.09801714 1
  vertex 0.98078525 0.19509032 1
 endloop
endfacet
facet normal 0 0 1
 outer loop
  vertex 0.98078525 0.19509032 1
  vertex 0.95694035 0.2902847 1
  vertex 0.9238795 0.38268346 1
 endloop
endfacet
facet normal 0 0 1
 outer loop
  vertex 0.9238795 0.38268346 1
  vertex 0.88192123 0.47139674 1
  vertex 0.8314696 0.55557024 1
 endloop
endfacet
facet normal 0 0 1
 outer loop
  vertex 0.8314696 0.55557024 1
  vertex 0.77301043 0.63439333 1
  vertex 0.70710677 0.70710677 1
 endloop
endfacet
facet normal 0 0 1
 outer loop
  vertex 0.70710677 0.70710677 1
  vertex 0.63439333 0.77301043 1
  vertex 0.55557024 0.8314696 1
 endloop
endfacet
facet normal 0 0 1
 outer loop
  vertex 0.55557024 0.8314696 1
  vertex 0.47139674 0.88192123 1
  vertex 0.38268346 0.9238795 1
 endloop
endfacet
facet normal 0 0 1
 outer loop
  vertex 0.38268346 0.9238795 1
  vertex 0.2902847 0.95694035 1
  vertex 0.19509032 0.98078525 1
 endloop
endfacet
facet normal -0 0 1
 outer loop
  vertex 0.19509032 0.98078525 1
  vertex 0 1 1
  vertex -0.19509032 0.98078525 1
 endloop
endfacet
facet normal 0 0 1
 outer loop
  vertex -0.19509032 0.98078525 1
  vertex -0.38268346 0.9238795 1
  vertex -0.55557024 0.8314696 1
 endloop
endfacet
facet normal 0 0 1
 outer loop
  vertex -0.55557024 0.8314696 1
  vertex -0.70710677 0.70710677 1
  vertex -0.8314696 0.55557024 1
 endloop
endfacet
facet normal 0 0 1
 outer loop
  vertex -0.8314696 0.55557024 1
  vertex -0.9238795 0.38268346 1
  vertex -0.98078525 0.19509032 1
 endloop
endfacet
facet normal 0 -0 1
 outer loop
  vertex -0.98078525 0.19509032 1
  vertex -1 0 1
  vertex -0.98078525 -0.19509032 1
 endloop
endfacet
facet normal 0 0 1
 outer loop
  vertex -0.98078525 -0.19509032 1
  vertex -0.9238795 -0.38268346 1
  vertex -0.8314696 -0.55557024 1
 endloop
endfacet
facet normal 0 0 1
 outer loop
  vertex -0.8314696 -0.55557024 1
  vertex -0.70710677 -0.70710677 1
  vertex -0.55557024 -0.8314696 1
 endloop
endfacet
facet normal 0 0 1
 outer loop
  vertex -0.55557024 -0.8314696 1
  vertex -0.38268346 -0.9238795 1
  vertex -0.19509032 -0.98078525 1
 endloop
endfacet
facet normal 0 0 1
 outer loop
  vertex -0.19509032 -0.98078525 1
  vertex 0 -1 1
  vertex 0.19509032 -0.98078525 1
 endloop
endfacet
facet normal 0 0 1
 outer loop
  vertex 0.19509032 -0.98078525 1
  vertex 0.38268346 -0.9238795 1
  vertex 0.55557024 -0.8314696 1
 endloop
endfacet
facet normal 0 0 1
 outer loop
  vertex 0.55557024 -0.8314696 1
  vertex 0.70710677 -0.70710677 1
  vertex 0.8314696 -0.55557024 1
 endloop
endfacet
facet normal 0 0 1
 outer loop
  vertex 0.8314696 -0.55557024 1
  vertex 0.9238795 -0.38268346 1
  vertex 0.98078525 -0.19509032 1
 endloop
endfacet
facet normal 0 0 1
 outer loop
  vertex 0.98078525 -0.19509032 1
  vertex 1 0 1
  vertex 0.98078525 0.19509032 1
 endloop
endfacet
facet normal 0 0 1
 outer loop
  vertex 0.98078525 0.19509032 1
  vertex 0.9238795 0.38268346 1
  vertex 0.8314696 0.55557024 1
 endloop
endfacet
facet normal 0 0 1
 outer loop
  vertex 0.8314696 0.55557024 1
  vertex 0.70710677 0.70710677 1
  vertex 0.55557024 0.8314696 1
 endloop
endfacet
facet normal 0 0 1
 outer loop
  vertex 0.55557024 0.8314696 1
  vertex 0.38268346 0.9238795 1
  vertex 0.19509032 0.98078525 1
 endloop
endfacet
facet normal 0 0 1
 outer loop
  vertex 0.19509032 0.98078525 1
  vertex -0.19509032 0.98078525 1
  vertex -0.55557024 0.8314696 1
 endloop
endfacet
facet normal 0 0 1
 outer loop
  vertex -0.55557024 0.8314696 1
  vertex -0.8314696 0.55557024 1
  vertex -0.98078525 0.19509032 1
 endloop
endfacet
facet normal 0 -0 1
 outer loop
  vertex -0.98078525 0.19509032 1
  vertex -0.98078525 -0.19509032 1
  vertex -0.8314696 -0.55557024 1
 endloop
endfacet
facet normal 0 0 1
 outer loop
  vertex -0.8314696 -0.55557024 1
  vertex -0.55557024 -0.8314696 1
  vertex -0.19509032 -0.98078525 1
 endloop
endfacet
facet normal 0 0 1
 outer loop
  vertex -0.19509032 -0.98078525 1
  vertex 0.19509032 -0.98078525 1
  vertex 0.55557024 -0.8314696 1
 endloop
endfacet
facet normal 0 0 1
 outer loop
  vertex 0.55557024 -0.8314696 1
  vertex 0.8314696 -0.55557024 1
  vertex 0.98078525 -0.19509032 1
 endloop
endfacet
facet normal 0 0 1
 outer loop
  vertex 0.98078525 -0.19509032 1
  vertex 0.98078525 0.19509032 1
  vertex 0.8314696 0.55557024 1
 endloop
endfacet
facet normal 0 0 1
 outer loop
  vertex 0.8314696 0.55557024 1
  vertex 0.55557024 0.8314696 1
  vertex 0.19509032 0.98078525 1
 endloop
endfacet
facet normal 0 0 1
 outer loop
  vertex 0.19509032 0.98078525 1
  vertex -0.55557024 0.8314696 1
  vertex -0.98078525 0.19509032 1
 endloop
endfacet
facet normal 0 0 1
 outer loop
  vertex -0.98078525 0.19509032 1
  vertex -0.8314696 -0.55557024 1
  vertex -0.19509032 -0.98078525 1
 endloop
endfacet
facet normal 0 0 1
 outer loop
  vertex -0.19509032 -0.98078525 1
  vertex 0.55557024 -0.8314696 1
  vertex 0.98078525 -0.19509032 1
 endloop
endfacet
facet normal 0 0 1
 outer loop
  vertex 0.98078525 -0.19509032 1
  vertex 0.8314696 0.55557024 1
  vertex 0.19509032 0.98078525 1
 endloop
endfacet
facet normal 0 -0 1
 outer loop
  vertex 0.19509032 0.98078525 1
  vertex -0.98078525 0.19509032 1
  vertex -0.19509032 -0.98078525 1
 endloop
endfacet
facet normal 0 0 1
 outer loop
  vertex -0.19509032 -0.98078525 1
  vertex 0.98078525 -0.19509032 1
  vertex 0.19509032 0.98078525 1
 endloop
endfacet
facet normal -0.1467307 0.9891765 0
 outer loop
  vertex -0.19509032 0.98078525 -1
  vertex -0.19509032 0.98078525 1
  vertex -0.09801714 0.9951847 1
 endloop
endfacet
facet normal -0.1467307 0.9891765 0
 outer loop
  vertex -0.19509032 0.98078525 -1
  vertex -0.09801714 0.9951847 1
  vertex -0.09801714 0.9951847 -1
 endloop
endfacet
facet normal -0.049067747 0.99879545 0
 outer loop
  vertex -0.09801714 0.9951847 -1
  vertex -0.09801714 0.9951847 1
  vertex 0 1 1
 endloop
endfacet
facet normal -0.049067747 0.99879545 0
 outer loop
  vertex -0.09801714 0.9951847 -1
  vertex 0 1 1
  vertex 0 1 -1
 endloop
endfacet
facet normal -0 0 -1
 outer loop
  vertex -0.09801714 0.9951847 -1
  vertex 0 1 -1
  vertex 0.09801714 0.9951847 -1
 endloop
endfacet
facet normal 0 0 -1
 outer loop
  vertex 0.09801714 0.9951847 -1
  vertex 0.19509032 0.98078525 -1
  vertex 0.2902847 0.95694035 -1
 endloop
endfacet
facet normal 0 0 -1
 outer loop
  vertex 0.2902847 0.95694035 -1
  vertex 0.38268346 0.9238795 -1
  vertex 0.47139674 0.88192123 -1
 endloop
endfacet
facet normal 0 0 -1
 outer loop
  vertex 0.47139674 0.88192123 -1
  vertex 0.55557024 0.8314696 -1
  vertex 0.63439333 0.77301043 -1
 endloop
endfacet
facet normal 0 0 -1
 outer loop
  vertex 0.63439333 0.77301043 -1
  vertex 0.70710677 0.70710677 -1
  vertex 0.77301043 0.63439333 -1
 endloop
endfacet
facet normal 0 0 -1
 outer loop
  vertex 0.77301043 0.63439333 -1
  vertex 0.8314696 0.55557024 -1
  vertex 0.88192123 0.47139674 -1
 endloop
endfacet
facet normal 0 0 -1
 outer loop
  vertex 0.88192123 0.47139674 -1
  vertex 0.9238795 0.38268346 -1
  vertex 0.95694035 0.2902847 -1
 endloop
endfacet
facet normal 0 0 -1
 outer loop
  vertex 0.95694035 0.2902847 -1
  vertex 0.98078525 0.19509032 -1
  vertex 0.9951847 0.09801714 -1
 endloop
endfacet
facet normal 0 0 -1
 outer loop
  vertex 0.9951847 0.09801714 -1
  vertex 1 0 -1
  vertex 0.9951847 -0.09801714 -1
 endloop
endfacet
facet normal 0 0 -1
 outer loop
  vertex 0.9951847 -0.09801714 -1
  vertex 0.98078525 -0.19509032 -1
  vertex 0.95694035 -0.2902847 -1
 endloop
endfacet
facet normal 0 0 -1
 outer loop
  vertex 0.95694035 -0.2902847 -1
  vertex 0.9238795 -0.38268346 -1
  vertex 0.88192123 -0.47139674 -1
 endloop
endfacet
facet normal 0 0 -1
 outer loop
  vertex 0.88192123 -0.47139674 -1
  vertex 0.8314696 -0.55557024 -1
  vertex 0.77301043 -0.63439333 -1
 endloop
endfacet
facet normal 0 0 -1
 outer loop
  vertex 0.77301043 -0.63439333 -1
  vertex 0.70710677 -0.70710677 -1
  vertex 0.63439333 -0.77301043 -1
 endloop
endfacet
facet normal 0 0 -1
 outer loop
  vertex 0.63439333 -0.77301043 -1
  vertex 0.55557024 -0.8314696 -1
  vertex 0.47139674 -0.88192123 -1
 endloop
endfacet
facet normal 0 0 -1
 outer loop
  vertex 0.47139674 -0.88192123 -1
  vertex 0.38268346 -0.9238795 -1
  vertex 0.2902847 -0.95694035 -1
 endloop
endfacet
facet normal 0 0 -1
 outer loop
  vertex 0.2902847 -0.95694035 -1
  vertex 0.19509032 -0.98078525 -1
  vertex 0.09801714 -0.9951847 -1
 endloop
endfacet
facet normal 0 0 -1
 outer loop
  vertex 0.09801714 -0.9951847 -1
  vertex 0 -1 -1
  vertex -0.09801714 -0.9951847 -1
 endloop
endfacet
facet normal 0 0 -1
 outer loop
  vertex -0.09801714 -0.9951847 -1
  vertex -0.19509032 -0.98078525 -1
  vertex -0.2902847 -0.95694035 -1
 endloop
endfacet
facet normal 0 0 -1
 outer loop
  vertex -0.2902847 -0.95694035 -1
  vertex -0.38268346 -0.9238795 -1
  vertex -0.47139674 -0.88192123 -1
 endloop
endfacet
facet normal 0 0 -1
 outer loop
  vertex -0.47139674 -0.88192123 -1
  vertex -0.55557024 -0.8314696 -1
  vertex -0.63439333 -0.77301043 -1
 endloop
endfacet
facet normal 0 0 -1
 outer loop
  vertex -0.63439333 -0.77301043 -1
  vertex -0.70710677 -0.70710677 -1
  vertex -0.77301043 -0.63439333 -1
 endloop
endfacet
facet normal 0 0 -1
 outer loop
  vertex -0.77301043 -0.63439333 -1
  vertex -0.8314696 -0.55557024 -1
  vertex -0.88192123 -0.47139674 -1
 endloop
endfacet
facet normal 0 0 -1
 outer loop
  vertex -0.88192123 -0.47139674 -1
  vertex -0.9238795 -0.38268346 -1
  vertex -0.95694035 -0.2902847 -1
 endloop
endfacet
facet normal 0 0 -1
 outer loop
  vertex -0.95694035 -0.2902847 -1
  vertex -0.98078525 -0.19509032 -1
  vertex -0.9951847 -0.09801714 -1
 endloop
endfacet
facet normal 0 -0 -1
 outer loop
  vertex -0.9951847 -0.09801714 -1
  vertex -1 0 -1
  vertex -0.9951847 0.09801714 -1
 endloop
endfacet
facet normal 0 0 -1
 outer loop
  vertex -0.9951847 0.09801714 -1
  vertex -0.98078525 0.19509032 -1
  vertex -0.95694035 0.2902847 -1
 endloop
endfacet
facet normal 0 0 -1
 outer loop
  vertex -0.95694035 0.2902847 -1
  vertex -0.9238795 0.38268346 -1
  vertex -0.88192123 0.47139674 -1
 endloop
endfacet
facet normal 0 0 -1
 outer loop
  vertex -0.88192123 0.47139674 -1
  vertex -0.8314696 0.55557024 -1
  vertex -0.77301043 0.63439333 -1
 endloop
endfacet
facet normal 0 0 -1
 outer loop
  vertex -0.77301043 0.63439333 -1
  vertex -0.70710677 0.70710677 -1
  vertex -0.63439333 0.77301043 -1
 endloop
endfacet
facet normal 0 0 -1
 outer loop
  vertex -0.63439333 0.77301043 -1
  vertex -0.55557024 0.8314696 -1
  vertex -0.47139674 0.88192123 -1
 endloop
endfacet
facet normal 0 0 -1
 outer loop
  vertex -0.47139674 0.88192123 -1
  vertex -0.38268346 0.9238795 -1
  vertex -0.2902847 0.95694035 -1
 endloop
endfacet
facet normal 0 0 -1
 outer loop
  vertex -0.2902847 0.95694035 -1
  vertex -0.19509032 0.98078525 -1
  vertex -0.09801714 0.9951847 -1
 endloop
endfacet
facet normal 0 0 -1
 outer loop
  vertex -0.09801714 0.9951847 -1
  vertex 0.09801714 0.9951847 -1
  vertex 0.2902847 0.95694035 -1
 endloop
endfacet
facet normal 0 0 -1
 outer loop
  vertex 0.2902847 0.95694035 -1
  vertex 0.47139674 0.88192123 -1
  vertex 0.63439333 0.77301043 -1
 endloop
endfacet
facet normal 0 0 -1
 outer loop
  vertex 0.63439333 0.77301043 -1
  vertex 0.77301043 0.63439333 -1
  vertex 0.88192123 0.47139674 -1
 endloop
endfacet
facet normal 0 0 -1
 outer loop
  vertex 0.88192123 0.47139674 -1
  vertex 0.95694035 0.2902847 -1
  vertex 0.9951847 0.09801714 -1
 endloop
endfacet
facet normal 0 0 -1
 outer loop
  vertex 0.9951847 0.09801714 -1
  vertex 0.9951847 -0.09801714 -1
  vertex 0.95694035 -0.2902847 -1
 endloop
endfacet
facet normal 0 0 -1
 outer loop
  vertex 0.95694035 -0.2902847 -1
  vertex 0.88192123 -0.47139674 -1
  vertex 0.77301043 -0.63439333 -1
 endloop
endfacet
facet normal 0 0 -1
 outer loop
  vertex 0.77301043 -0.63439333 -1
  vertex 0.63439333 -0.77301043 -1
  vertex 0.47139674 -0.88192123 -1
 endloop
endfacet
facet normal 0 0 -1
 outer loop
  vertex 0.47139674 -0.88192123 -1
  vertex 0.2902847 -0.95694035 -1
  vertex 0.09801714 -0.9951847 -1
 endloop
endfacet
facet normal 0 0 -1
 outer loop
  vertex 0.09801714 -0.9951847 -1
  vertex -0.09801714 -0.9951847 -1
  vertex -0.2902847 -0.95694035 -1
 endloop
endfacet
facet normal 0 0 -1
 outer loop
  vertex -0.2902847 -0.95694035 -1
  vertex -0.47139674 -0.88192123 -1
  vertex -0.63439333 -0.77301043 -1
 endloop
endfacet
facet normal 0 0 -1
 outer loop
  vertex -0.63439333 -0.77301043 -1
  vertex -0.77301043 -0.63439333 -1
  vertex -0.88192123 -0.47139674 -1
 endloop
endfacet
facet normal 0 0 -1
 outer loop
  vertex -0.88192123 -0.47139674 -1
  vertex -0.95694035 -0.2902847 -1
  vertex -0.9951847 -0.09801714 -1
 endloop
endfacet
facet normal 0 -0 -1
 outer loop
  vertex -0.9951847 -0.09801714 -1
  vertex -0.9951847 0.09801714 -1
  vertex -0.95694035 0.2902847 -1
 endloop
endfacet
facet normal 0 0 -1
 outer loop
  vertex -0.95694035 0.2902847 -1
  vertex -0.88192123 0.47139674 -1
  vertex -0.77301043 0.63439333 -1
 endloop
endfacet
facet normal 0 0 -1
 outer loop
  vertex -0.77301043 0.63439333 -1
  vertex -0.63439333 0.77301043 -1
  vertex -0.47139674 0.88192123 -1
 endloop
endfacet
facet normal 0 0 -1
 outer loop
  vertex -0.47139674 0.88192123 -1
  vertex -0.2902847 0.95694035 -1
  vertex -0.09801714 0.9951847 -1
 endloop
endfacet
facet normal 0 0 -1
 outer loop
  vertex -0.09801714 0.9951847 -1
  vertex 0.2902847 0.95694035 -1
  vertex 0.63439333 0.77301043 -1
 endloop
endfacet
facet normal 0 0 -1
 outer loop
  vertex 0.63439333 0.77301043 -1
  vertex 0.88192123 0.47139674 -1
  vertex 0.9951847 0.09801714 -1
 endloop
endfacet
facet normal 0 0 -1
 outer loop
  vertex 0.9951847 0.09801714 -1
  vertex 0.95694035 -0.2902847 -1
  vertex 0.77301043 -0.63439333 -1
 endloop
endfacet
facet normal 0 0 -1
 outer loop
  vertex 0.77301043 -0.63439333 -1
  vertex 0.47139674 -0.88192123 -1
  vertex 0.09801714 -0.9951847 -1
 endloop
endfacet
facet normal 0 0 -1
 outer loop
  vertex 0.09801714 -0.9951847 -1
  vertex -0.2902847 -0.95694035 -1
  vertex -0.63439333 -0.77301043 -1
 endloop
endfacet
facet normal 0 0 -1
 outer loop
  vertex -0.63439333 -0.77301043 -1
  vertex -0.88192123 -0.47139674 -1
  vertex -0.9951847 -0.09801714 -1
 endloop
endfacet
facet normal 0 0 -1
 outer loop
  vertex -0.9951847 -0.09801714 -1
  vertex -0.95694035 0.2902847 -1
  vertex -0.77301043 0.63439333 -1
 endloop
endfacet
facet normal 0 0 -1
 outer loop
  vertex -0.77301043 0.63439333 -1
  vertex -0.47139674 0.88192123 -1
  vertex -0.09801714 0.9951847 -1
 endloop
endfacet
facet normal 0 0 -1
 outer loop
  vertex -0.09801714 0.9951847 -1
  vertex 0.63439333 0.77301043 -1
  vertex 0.9951847 0.09801714 -1
 endloop
endfacet
facet normal 0 0 -1
 outer loop
  vertex 0.9951847 0.09801714 -1
  vertex 0.77301043 -0.63439333 -1
  vertex 0.09801714 -0.9951847 -1
 endloop
endfacet
facet normal 0 0 -1
 outer loop
  vertex 0.09801714 -0.9951847 -1
  vertex -0.63439333 -0.77301043 -1
  vertex -0.9951847 -0.09801714 -1
 endloop
endfacet
facet normal 0 0 -1
 outer loop
  vertex -0.9951847 -0.09801714 -1
  vertex -0.77301043 0.63439333 -1
  vertex -0.09801714 0.9951847 -1
 endloop
endfacet
facet normal 0 0 -1
 outer loop
  vertex -0.09801714 0.9951847 -1
  vertex 0.9951847 0.09801714 -1
  vertex 0.09801714 -0.9951847 -1
 endloop
endfacet
facet normal 0 -0 -1
 outer loop
  vertex 0.09801714 -0.9951847 -1
  vertex -0.9951847 -0.09801714 -1
  vertex -0.09801714 0.9951847 -1
 endloop
endfacet
endsolid 
