solid 
facet normal 0.102380954 -0.3150898 -0.94352347
 outer loop
  vertex 0 0 -1
  vertex 0.42532268 -0.3090114 -0.8506542
  vertex -0.16245556 -0.49999526 -0.8506544
 endloop
endfacet
facet normal 0.700224 -0.26803172 -0.6616988
 outer loop
  vertex 0.7236073 -0.5257253 -0.44721952
  vertex 0.42532268 -0.3090114 -0.8506542
  vertex 0.85064787 0 -0.5257359
 endloop
endfacet
facet normal -0.2680342 -0.19473648 -0.9435229
 outer loop
  vertex 0 0 -1
  vertex -0.16245556 -0.49999526 -0.8506544
  vertex -0.5257298 0 -0.8506517
 endloop
endfacet
facet normal -0.2680342 0.1947365 -0.9435229
 outer loop
  vertex 0 0 -1
  vertex -0.5257298 0 -0.8506517
  vertex -0.16245556 0.49999526 -0.8506544
 endloop
endfacet
facet normal 0.102380954 0.3150898 -0.94352347
 outer loop
  vertex 0 0 -1
  vertex -0.16245556 0.49999526 -0.8506544
  vertex 0.42532268 0.3090114 -0.8506542
 endloop
endfacet
facet normal 0.90498906 -0.26803148 -0.3303846
 outer loop
  vertex 0.7236073 -0.5257253 -0.44721952
  vertex 0.85064787 0 -0.5257359
  vertex 0.95105785 -0.30901262 0
 endloop
endfacet
facet normal 0.0247466 -0.9435213 -0.3303861
 outer loop
  vertex -0.27638802 -0.85064924 -0.44721985
  vertex 0.26286882 -0.80901164 -0.52573764
  vertex 0 -0.99999994 0
 endloop
endfacet
facet normal -0.8896974 -0.31509465 -0.33038476
 outer loop
  vertex -0.8944262 0 -0.44721562
  vertex -0.6881894 -0.49999693 -0.5257362
  vertex -0.95105785 -0.30901262 0
 endloop
endfacet
facet normal -0.5746018 0.7487835 -0.33038756
 outer loop
  vertex -0.27638802 0.85064924 -0.44721985
  vertex -0.6881894 0.49999693 -0.5257362
  vertex -0.5877856 0.8090167 0
 endloop
endfacet
facet normal 0.534576 0.7778645 -0.33038652
 outer loop
  vertex 0.7236073 0.5257253 -0.44721952
  vertex 0.26286882 0.80901164 -0.52573764
  vertex 0.5877856 0.8090167 0
 endloop
endfacet
facet normal 0.8026091 -0.5831265 -0.12562728
 outer loop
  vertex 0.7236073 -0.5257253 -0.44721952
  vertex 0.95105785 -0.30901262 0
  vertex 0.5877856 -0.8090167 0
 endloop
endfacet
facet normal -0.30656895 -0.94352156 -0.12562865
 outer loop
  vertex -0.27638802 -0.85064924 -0.44721985
  vertex 0 -0.99999994 0
  vertex -0.5877856 -0.8090167 0
 endloop
endfacet
facet normal -0.9920774 -0 -0.12562834
 outer loop
  vertex -0.8944262 0 -0.44721562
  vertex -0.95105785 -0.30901262 0
  vertex -0.95105785 0.30901262 0
 endloop
endfacet
facet normal -0.30656895 0.94352156 -0.12562867
 outer loop
  vertex -0.27638802 0.85064924 -0.44721985
  vertex -0.5877856 0.8090167 0
  vertex 0 0.99999994 0
 endloop
endfacet
facet normal 0.8026091 0.5831265 -0.12562731
 outer loop
  vertex 0.7236073 0.5257253 -0.44721952
  vertex 0.5877856 0.8090167 0
  vertex 0.95105785 0.30901262 0
 endloop
endfacet
facet normal 0.4089461 -0.6284251 0.66169846
 outer loop
  vertex 0.27638802 -0.85064924 0.44721985
  vertex 0.6881894 -0.49999693 0.5257362
  vertex 0.16245556 -0.49999526 0.85065436
 endloop
endfacet
facet normal -0.47129968 -0.58312225 0.66169864
 outer loop
  vertex -0.7236073 -0.5257253 0.44721952
  vertex -0.26286882 -0.80901164 0.52573764
  vertex -0.42532268 -0.3090114 0.8506542
 endloop
endfacet
facet normal -0.7002239 0.26803172 0.6616988
 outer loop
  vertex -0.7236073 0.5257253 0.44721952
  vertex -0.85064787 0 0.5257359
  vertex -0.42532268 0.3090114 0.8506542
 endloop
endfacet
facet normal 0.038530406 0.74877894 0.66169894
 outer loop
  vertex 0.27638802 0.85064924 0.44721985
  vertex -0.26286882 0.80901164 0.52573764
  vertex 0.16245556 0.49999526 0.85065436
 endloop
endfacet
facet normal 0.7240422 0.1947361 0.66169536
 outer loop
  vertex 0.8944262 0 0.44721562
  vertex 0.6881894 0.49999693 0.5257362
  vertex 0.5257298 0 0.8506517
 endloop
endfacet
facet normal 0.2680342 0.19473661 0.9435229
 outer loop
  vertex 0.5257298 0 0.8506517
  vertex 0.16245556 0.49999526 0.85065436
  vertex 0 0 1
 endloop
endfacet
facet normal 0.49111933 0.3568211 0.79465747
 outer loop
  vertex 0.5257298 0 0.8506517
  vertex 0.6881894 0.49999693 0.5257362
  vertex 0.16245556 0.49999526 0.85065436
 endloop
endfacet
facet normal 0.40894613 0.6284251 0.6616985
 outer loop
  vertex 0.6881894 0.49999693 0.5257362
  vertex 0.27638802 0.85064924 0.44721985
  vertex 0.16245556 0.49999526 0.85065436
 endloop
endfacet
facet normal -0.10238089 0.3150899 0.94352347
 outer loop
  vertex 0.16245556 0.49999526 0.85065436
  vertex -0.42532268 0.3090114 0.8506542
  vertex 0 0 1
 endloop
endfacet
facet normal -0.18759419 0.5773454 0.7946576
 outer loop
  vertex 0.16245556 0.49999526 0.85065436
  vertex -0.26286882 0.80901164 0.52573764
  vertex -0.42532268 0.3090114 0.8506542
 endloop
endfacet
facet normal -0.47129968 0.58312225 0.66169864
 outer loop
  vertex -0.26286882 0.80901164 0.52573764
  vertex -0.7236073 0.5257253 0.44721952
  vertex -0.42532268 0.3090114 0.8506542
 endloop
endfacet
facet normal -0.33130455 0 0.9435238
 outer loop
  vertex -0.42532268 0.3090114 0.8506542
  vertex -0.42532268 -0.3090114 0.8506542
  vertex 0 0 1
 endloop
endfacet
facet normal -0.60706055 0 0.7946556
 outer loop
  vertex -0.42532268 0.3090114 0.8506542
  vertex -0.85064787 0 0.5257359
  vertex -0.42532268 -0.3090114 0.8506542
 endloop
endfacet
facet normal -0.700224 -0.26803172 0.6616988
 outer loop
  vertex -0.85064787 0 0.5257359
  vertex -0.7236073 -0.5257253 0.44721952
  vertex -0.42532268 -0.3090114 0.8506542
 endloop
endfacet
facet normal -0.10238089 -0.31508988 0.94352347
 outer loop
  vertex -0.42532268 -0.3090114 0.8506542
  vertex 0.16245556 -0.49999526 0.85065436
  vertex 0 0 1
 endloop
endfacet
facet normal -0.18759419 -0.5773454 0.7946576
 outer loop
  vertex -0.42532268 -0.3090114 0.8506542
  vertex -0.26286882 -0.80901164 0.52573764
  vertex 0.16245556 -0.49999526 0.85065436
 endloop
endfacet
facet normal 0.038530406 -0.748779 0.661699
 outer loop
  vertex -0.26286882 -0.80901164 0.52573764
  vertex 0.27638802 -0.85064924 0.44721985
  vertex 0.16245556 -0.49999526 0.85065436
 endloop
endfacet
facet normal 0.2680342 -0.19473661 0.9435229
 outer loop
  vertex 0.16245556 -0.49999526 0.85065436
  vertex 0.5257298 0 0.8506517
  vertex 0 0 1
 endloop
endfacet
facet normal 0.49111933 -0.3568211 0.79465747
 outer loop
  vertex 0.16245556 -0.49999526 0.85065436
  vertex 0.6881894 -0.49999693 0.5257362
  vertex 0.5257298 0 0.8506517
 endloop
endfacet
facet normal 0.7240422 -0.19473608 0.66169536
 outer loop
  vertex 0.6881894 -0.49999693 0.5257362
  vertex 0.8944262 0 0.44721562
  vertex 0.5257298 0 0.8506517
 endloop
endfacet
facet normal 0.8896974 0.31509465 0.33038476
 outer loop
  vertex 0.95105785 0.30901262 0
  vertex 0.6881894 0.49999693 0.5257362
  vertex 0.8944262 0 0.44721562
 endloop
endfacet
facet normal 0.79465556 0.57734793 0.18759502
 outer loop
  vertex 0.95105785 0.30901262 0
  vertex 0.5877856 0.8090167 0
  vertex 0.6881894 0.49999693 0.5257362
 endloop
endfacet
facet normal 0.5746019 0.7487835 0.33038756
 outer loop
  vertex 0.5877856 0.8090167 0
  vertex 0.27638802 0.85064924 0.44721985
  vertex 0.6881894 0.49999693 0.5257362
 endloop
endfacet
facet normal -0.0247466 0.9435213 0.3303861
 outer loop
  vertex 0 0.99999994 0
  vertex -0.26286882 0.80901164 0.52573764
  vertex 0.27638802 0.85064924 0.44721985
 endloop
endfacet
facet normal -0.30353087 0.9341714 0.18759738
 outer loop
  vertex 0 0.99999994 0
  vertex -0.5877856 0.8090167 0
  vertex -0.26286882 0.80901164 0.52573764
 endloop
endfacet
facet normal -0.534576 0.7778645 0.33038655
 outer loop
  vertex -0.5877856 0.8090167 0
  vertex -0.7236073 0.5257253 0.44721952
  vertex -0.26286882 0.80901164 0.52573764
 endloop
endfacet
facet normal -0.90498906 0.26803148 0.3303846
 outer loop
  vertex -0.95105785 0.30901262 0
  vertex -0.85064787 0 0.5257359
  vertex -0.7236073 0.5257253 0.44721952
 endloop
endfacet
facet normal -0.9822458 0 0.18759853
 outer loop
  vertex -0.95105785 0.30901262 0
  vertex -0.95105785 -0.30901262 0
  vertex -0.85064787 0 0.5257359
 endloop
endfacet
facet normal -0.90498906 -0.26803145 0.33038458
 outer loop
  vertex -0.95105785 -0.30901262 0
  vertex -0.7236073 -0.5257253 0.44721952
  vertex -0.85064787 0 0.5257359
 endloop
endfacet
facet normal -0.534576 -0.7778645 0.33038652
 outer loop
  vertex -0.5877856 -0.8090167 0
  vertex -0.26286882 -0.80901164 0.52573764
  vertex -0.7236073 -0.5257253 0.44721952
 endloop
endfacet
facet normal -0.30353087 -0.9341714 0.18759738
 outer loop
  vertex -0.5877856 -0.8090167 0
  vertex 0 -0.99999994 0
  vertex -0.26286882 -0.80901164 0.52573764
 endloop
endfacet
facet normal -0.024746602 -0.9435213 0.33038613
 outer loop
  vertex 0 -0.99999994 0
  vertex 0.27638802 -0.85064924 0.44721985
  vertex -0.26286882 -0.80901164 0.52573764
 endloop
endfacet
facet normal 0.5746018 -0.7487835 0.33038756
 outer loop
  vertex 0.5877856 -0.8090167 0
  vertex 0.6881894 -0.49999693 0.5257362
  vertex 0.27638802 -0.85064924 0.44721985
 endloop
endfacet
facet normal 0.79465556 -0.57734793 0.18759501
 outer loop
  vertex 0.5877856 -0.8090167 0
  vertex 0.95105785 -0.30901262 0
  vertex 0.6881894 -0.49999693 0.5257362
 endloop
endfacet
facet normal 0.8896974 -0.31509462 0.33038476
 outer loop
  vertex 0.95105785 -0.30901262 0
  vertex 0.8944262 0 0.44721562
  vertex 0.6881894 -0.49999693 0.5257362
 endloop
endfacet
facet normal 0.30656895 0.94352156 0.12562865
 outer loop
  vertex 0.5877856 0.8090167 0
  vertex 0 0.99999994 0
  vertex 0.27638802 0.85064924 0.44721985
 endloop
endfacet
facet normal 0.30353087 0.9341714 -0.1875974
 outer loop
  vertex 0.5877856 0.8090167 0
  vertex 0.26286882 0.80901164 -0.52573764
  vertex 0 0.99999994 0
 endloop
endfacet
facet normal 0.024746602 0.9435213 -0.33038613
 outer loop
  vertex 0.26286882 0.80901164 -0.52573764
  vertex -0.27638802 0.85064924 -0.44721985
  vertex 0 0.99999994 0
 endloop
endfacet
facet normal -0.8026091 0.5831265 0.12562728
 outer loop
  vertex -0.5877856 0.8090167 0
  vertex -0.95105785 0.30901262 0
  vertex -0.7236073 0.5257253 0.44721952
 endloop
endfacet
facet normal -0.7946556 0.57734793 -0.18759504
 outer loop
  vertex -0.5877856 0.8090167 0
  vertex -0.6881894 0.49999693 -0.5257362
  vertex -0.95105785 0.30901262 0
 endloop
endfacet
facet normal -0.8896974 0.31509462 -0.33038476
 outer loop
  vertex -0.6881894 0.49999693 -0.5257362
  vertex -0.8944262 0 -0.44721562
  vertex -0.95105785 0.30901262 0
 endloop
endfacet
facet normal -0.8026091 -0.5831265 0.12562731
 outer loop
  vertex -0.95105785 -0.30901262 0
  vertex -0.5877856 -0.8090167 0
  vertex -0.7236073 -0.5257253 0.44721952
 endloop
endfacet
facet normal -0.7946556 -0.57734793 -0.18759504
 outer loop
  vertex -0.95105785 -0.30901262 0
  vertex -0.6881894 -0.49999693 -0.5257362
  vertex -0.5877856 -0.8090167 0
 endloop
endfacet
facet normal -0.5746019 -0.7487835 -0.33038756
 outer loop
  vertex -0.6881894 -0.49999693 -0.5257362
  vertex -0.27638802 -0.85064924 -0.44721985
  vertex -0.5877856 -0.8090167 0
 endloop
endfacet
facet normal 0.30656895 -0.94352156 0.12562867
 outer loop
  vertex 0 -0.99999994 0
  vertex 0.5877856 -0.8090167 0
  vertex 0.27638802 -0.85064924 0.44721985
 endloop
endfacet
facet normal 0.30353087 -0.9341714 -0.1875974
 outer loop
  vertex 0 -0.99999994 0
  vertex 0.26286882 -0.80901164 -0.52573764
  vertex 0.5877856 -0.8090167 0
 endloop
endfacet
facet normal 0.534576 -0.7778645 -0.33038655
 outer loop
  vertex 0.26286882 -0.80901164 -0.52573764
  vertex 0.7236073 -0.5257253 -0.44721952
  vertex 0.5877856 -0.8090167 0
 endloop
endfacet
facet normal 0.9920774 0 0.12562834
 outer loop
  vertex 0.95105785 -0.30901262 0
  vertex 0.95105785 0.30901262 0
  vertex 0.8944262 0 0.44721562
 endloop
endfacet
facet normal 0.9822458 0 -0.18759853
 outer loop
  vertex 0.95105785 -0.30901262 0
  vertex 0.85064787 0 -0.5257359
  vertex 0.95105785 0.30901262 0
 endloop
endfacet
facet normal 0.90498906 0.26803145 -0.33038458
 outer loop
  vertex 0.85064787 0 -0.5257359
  vertex 0.7236073 0.5257253 -0.44721952
  vertex 0.95105785 0.30901262 0
 endloop
endfacet
facet normal 0.47129968 0.58312225 -0.66169864
 outer loop
  vertex 0.42532268 0.3090114 -0.8506542
  vertex 0.26286882 0.80901164 -0.52573764
  vertex 0.7236073 0.5257253 -0.44721952
 endloop
endfacet
facet normal 0.1875943 0.5773453 -0.7946576
 outer loop
  vertex 0.42532268 0.3090114 -0.8506542
  vertex -0.16245556 0.49999526 -0.8506544
  vertex 0.26286882 0.80901164 -0.52573764
 endloop
endfacet
facet normal -0.038530394 0.748779 -0.66169894
 outer loop
  vertex -0.16245556 0.49999526 -0.8506544
  vertex -0.27638802 0.85064924 -0.44721985
  vertex 0.26286882 0.80901164 -0.52573764
 endloop
endfacet
facet normal -0.40894616 0.6284252 -0.66169846
 outer loop
  vertex -0.16245556 0.49999526 -0.8506544
  vertex -0.6881894 0.49999693 -0.5257362
  vertex -0.27638802 0.85064924 -0.44721985
 endloop
endfacet
facet normal -0.4911194 0.35682103 -0.79465747
 outer loop
  vertex -0.16245556 0.49999526 -0.8506544
  vertex -0.5257298 0 -0.8506517
  vertex -0.6881894 0.49999693 -0.5257362
 endloop
endfacet
facet normal -0.7240422 0.19473608 -0.66169536
 outer loop
  vertex -0.5257298 0 -0.8506517
  vertex -0.8944262 0 -0.44721562
  vertex -0.6881894 0.49999693 -0.5257362
 endloop
endfacet
facet normal -0.7240422 -0.1947361 -0.66169536
 outer loop
  vertex -0.5257298 0 -0.8506517
  vertex -0.6881894 -0.49999693 -0.5257362
  vertex -0.8944262 0 -0.44721562
 endloop
endfacet
facet normal -0.49111944 -0.3568211 -0.79465747
 outer loop
  vertex -0.5257298 0 -0.8506517
  vertex -0.16245556 -0.49999526 -0.8506544
  vertex -0.6881894 -0.49999693 -0.5257362
 endloop
endfacet
facet normal -0.40894616 -0.6284252 -0.66169846
 outer loop
  vertex -0.16245556 -0.49999526 -0.8506544
  vertex -0.27638802 -0.85064924 -0.44721985
  vertex -0.6881894 -0.49999693 -0.5257362
 endloop
endfacet
facet normal 0.700224 0.26803172 -0.6616988
 outer loop
  vertex 0.85064787 0 -0.5257359
  vertex 0.42532268 0.3090114 -0.8506542
  vertex 0.7236073 0.5257253 -0.44721952
 endloop
endfacet
facet normal 0.60706055 0 -0.7946556
 outer loop
  vertex 0.85064787 0 -0.5257359
  vertex 0.42532268 -0.3090114 -0.8506542
  vertex 0.42532268 0.3090114 -0.8506542
 endloop
endfacet
facet normal 0.33130455 0 -0.9435238
 outer loop
  vertex 0.42532268 -0.3090114 -0.8506542
  vertex 0 0 -1
  vertex 0.42532268 0.3090114 -0.8506542
 endloop
endfacet
facet normal -0.03853039 -0.748779 -0.6616988
 outer loop
  vertex -0.16245556 -0.49999526 -0.8506544
  vertex 0.26286882 -0.80901164 -0.52573764
  vertex -0.27638802 -0.85064924 -0.44721985
 endloop
endfacet
facet normal 0.18759428 -0.5773454 -0.7946576
 outer loop
  vertex -0.16245556 -0.49999526 -0.8506544
  vertex 0.42532268 -0.3090114 -0.8506542
  vertex 0.26286882 -0.80901164 -0.52573764
 endloop
endfacet
facet normal 0.47129968 -0.58312225 -0.66169864
 outer loop
  vertex 0.42532268 -0.3090114 -0.8506542
  vertex 0.7236073 -0.5257253 -0.44721952
  vertex 0.26286882 -0.80901164 -0.52573764
 endloop
endfacet
endsolid 
