solid 
facet normal 0.048151195 -0.14819048 -0.98778594
 outer loop
  vertex 0 0 -1
  vertex 0.20318091 -0.14761785 -0.96794957
  vertex -0.07760664 -0.23885271 -0.9679497
 endloop
endfacet
facet normal 0.72299176 -0.41207153 -0.55450875
 outer loop
  vertex 0.7236073 -0.5257253 -0.44721952
  vertex 0.60954666 -0.4428564 -0.65751886
  vertex 0.81272924 -0.29523772 -0.5023006
 endloop
endfacet
facet normal -0.12606032 -0.09158667 -0.98778576
 outer loop
  vertex 0 0 -1
  vertex -0.07760664 -0.23885271 -0.9679497
  vertex -0.25114697 0 -0.96794885
 endloop
endfacet
facet normal -0.1260603 0.091586664 -0.98778576
 outer loop
  vertex 0 0 -1
  vertex -0.25114697 0 -0.96794885
  vertex -0.07760664 0.23885271 -0.9679497
 endloop
endfacet
facet normal 0.048151195 0.14819048 -0.98778594
 outer loop
  vertex 0 0 -1
  vertex -0.07760664 0.23885271 -0.9679497
  vertex 0.20318091 0.14761785 -0.96794957
 endloop
endfacet
facet normal 0.8192958 -0.41207147 -0.39868724
 outer loop
  vertex 0.7236073 -0.5257253 -0.44721952
  vertex 0.81272924 -0.29523772 -0.5023006
  vertex 0.8606976 -0.44285753 -0.25115085
 endloop
endfacet
facet normal -0.13872609 -0.90653324 -0.39868852
 outer loop
  vertex -0.27638802 -0.85064924 -0.44721985
  vertex -0.029639274 -0.8641842 -0.50230193
  vertex -0.1552151 -0.95542204 -0.25115153
 endloop
endfacet
facet normal -0.90503526 -0.14819272 -0.39868551
 outer loop
  vertex -0.8944262 0 -0.44721562
  vertex -0.83105063 -0.2388534 -0.50229865
  vertex -0.95662576 -0.14761837 -0.25114945
 endloop
endfacet
facet normal -0.4206077 0.8149454 -0.3986894
 outer loop
  vertex -0.27638802 0.85064924 -0.44721985
  vertex -0.48397142 0.71656454 -0.5023017
  vertex -0.4360068 0.8641879 -0.25115204
 endloop
endfacet
facet normal 0.64508563 0.65185267 -0.39868852
 outer loop
  vertex 0.7236073 0.5257253 -0.44721952
  vertex 0.5319409 0.68171245 -0.5023017
  vertex 0.6871585 0.6817153 -0.2511519
 endloop
endfacet
facet normal 0.7711455 -0.5602645 -0.3023875
 outer loop
  vertex 0.7236073 -0.5257253 -0.44721952
  vertex 0.8606976 -0.44285753 -0.25115085
  vertex 0.6871586 -0.6817153 -0.25115192
 endloop
endfacet
facet normal -0.294548 -0.9065333 -0.30238843
 outer loop
  vertex -0.27638802 -0.85064924 -0.44721985
  vertex -0.1552151 -0.95542204 -0.25115153
  vertex -0.4360068 -0.8641879 -0.25115204
 endloop
endfacet
facet normal -0.9531855 -0 -0.30238613
 outer loop
  vertex -0.8944262 0 -0.44721562
  vertex -0.95662576 -0.14761837 -0.25114945
  vertex -0.95662576 0.14761837 -0.25114945
 endloop
endfacet
facet normal -0.294548 0.9065333 -0.30238846
 outer loop
  vertex -0.27638802 0.85064924 -0.44721985
  vertex -0.4360068 0.8641879 -0.25115204
  vertex -0.1552151 0.95542204 -0.25115153
 endloop
endfacet
facet normal 0.77114546 0.56026465 -0.3023874
 outer loop
  vertex 0.7236073 0.5257253 -0.44721952
  vertex 0.6871585 0.6817153 -0.2511519
  vertex 0.8606976 0.44285753 -0.25115085
 endloop
endfacet
facet normal 0.34269744 -0.75833917 0.554509
 outer loop
  vertex 0.27638802 -0.85064924 0.44721985
  vertex 0.48397142 -0.71656454 0.5023017
  vertex 0.23282152 -0.7165631 0.6575192
 endloop
endfacet
facet normal -0.61532587 -0.56026256 0.5545086
 outer loop
  vertex -0.7236073 -0.5257253 0.44721952
  vertex -0.5319409 -0.68171245 0.5023017
  vertex -0.60954666 -0.4428564 0.65751886
 endloop
endfacet
facet normal -0.72299176 0.4120716 0.55450875
 outer loop
  vertex -0.7236073 0.5257253 0.44721952
  vertex -0.81272924 0.29523772 0.5023006
  vertex -0.60954666 0.4428564 0.65751886
 endloop
endfacet
facet normal 0.16848612 0.8149431 0.554509
 outer loop
  vertex 0.27638802 0.85064924 0.44721985
  vertex 0.029639274 0.8641842 0.50230193
  vertex 0.23282152 0.7165631 0.6575192
 endloop
endfacet
facet normal 0.8271254 0.091586515 0.5545049
 outer loop
  vertex 0.8944262 0 0.44721562
  vertex 0.83105063 0.2388534 0.50229865
  vertex 0.7534417 0 0.65751475
 endloop
endfacet
facet normal 0.12606032 0.091586664 0.98778576
 outer loop
  vertex 0.25114697 0 0.96794885
  vertex 0.07760664 0.23885272 0.9679497
  vertex 0 0 1
 endloop
endfacet
facet normal 0.39119437 0.09145024 0.9157531
 outer loop
  vertex 0.5257298 0 0.8506517
  vertex 0.3618003 0.26286295 0.8944292
  vertex 0.25114697 0 0.96794885
 endloop
endfacet
facet normal 0.6441244 0.09145072 0.7594343
 outer loop
  vertex 0.7534417 0 0.65751475
  vertex 0.63819355 0.2628641 0.72361004
  vertex 0.5257298 0 0.8506517
 endloop
endfacet
facet normal 0.23337594 0.16955777 0.9574894
 outer loop
  vertex 0.25114697 0 0.96794885
  vertex 0.3618003 0.26286295 0.8944292
  vertex 0.07760664 0.23885272 0.9679497
 endloop
endfacet
facet normal 0.20785946 0.34378546 0.9157544
 outer loop
  vertex 0.3618003 0.26286295 0.8944292
  vertex 0.16245556 0.49999526 0.8506544
  vertex 0.07760664 0.23885272 0.9679497
 endloop
endfacet
facet normal 0.5168453 0.18304549 0.8362806
 outer loop
  vertex 0.5257298 0 0.8506517
  vertex 0.63819355 0.2628641 0.72361004
  vertex 0.3618003 0.26286295 0.8944292
 endloop
endfacet
facet normal 0.49112025 0.3568197 0.7946575
 outer loop
  vertex 0.63819355 0.2628641 0.72361004
  vertex 0.44720915 0.52572817 0.7236116
  vertex 0.3618003 0.26286295 0.8944292
 endloop
endfacet
facet normal 0.33379802 0.43498477 0.8362817
 outer loop
  vertex 0.3618003 0.26286295 0.8944292
  vertex 0.44720915 0.52572817 0.7236116
  vertex 0.16245556 0.49999526 0.8506544
 endloop
endfacet
facet normal 0.28601745 0.58433557 0.7594379
 outer loop
  vertex 0.44720915 0.52572817 0.7236116
  vertex 0.23282152 0.7165631 0.6575192
  vertex 0.16245556 0.49999526 0.8506544
 endloop
endfacet
facet normal 0.75203085 0.16955937 0.63694525
 outer loop
  vertex 0.7534417 0 0.65751475
  vertex 0.83105063 0.2388534 0.50229865
  vertex 0.63819355 0.2628641 0.72361004
 endloop
endfacet
facet normal 0.7261137 0.3437858 0.595458
 outer loop
  vertex 0.83105063 0.2388534 0.50229865
  vertex 0.6881894 0.4999969 0.5257362
  vertex 0.63819355 0.2628641 0.72361004
 endloop
endfacet
facet normal 0.5987051 0.43498647 0.6725614
 outer loop
  vertex 0.63819355 0.2628641 0.72361004
  vertex 0.6881894 0.4999969 0.5257362
  vertex 0.44720915 0.52572817 0.7236116
 endloop
endfacet
facet normal 0.5513423 0.58433634 0.5954601
 outer loop
  vertex 0.6881894 0.4999969 0.5257362
  vertex 0.48397142 0.71656454 0.5023017
  vertex 0.44720915 0.52572817 0.7236116
 endloop
endfacet
facet normal 0.39364737 0.6628268 0.6369477
 outer loop
  vertex 0.44720915 0.52572817 0.7236116
  vertex 0.48397142 0.71656454 0.5023017
  vertex 0.23282152 0.7165631 0.6575192
 endloop
endfacet
facet normal 0.34269744 0.75833917 0.554509
 outer loop
  vertex 0.48397142 0.71656454 0.5023017
  vertex 0.27638802 0.85064924 0.44721985
  vertex 0.23282152 0.7165631 0.6575192
 endloop
endfacet
facet normal -0.0481512 0.14819048 0.98778594
 outer loop
  vertex 0.07760664 0.23885272 0.9679497
  vertex -0.20318091 0.14761785 0.96794957
  vertex 0 0 1
 endloop
endfacet
facet normal 0.03390802 0.40030482 0.91575456
 outer loop
  vertex 0.16245556 0.49999526 0.8506544
  vertex -0.13819726 0.4253195 0.8944299
  vertex 0.07760664 0.23885272 0.9679497
 endloop
endfacet
facet normal 0.112066194 0.64085495 0.75943804
 outer loop
  vertex 0.23282152 0.7165631 0.6575192
  vertex -0.052789573 0.6881849 0.72361237
  vertex 0.16245556 0.49999526 0.8506544
 endloop
endfacet
facet normal -0.0891432 0.27434888 0.9574895
 outer loop
  vertex 0.07760664 0.23885272 0.9679497
  vertex -0.13819726 0.4253195 0.8944299
  vertex -0.20318091 0.14761785 0.96794957
 endloop
endfacet
facet normal -0.262729 0.30391982 0.91575444
 outer loop
  vertex -0.13819726 0.4253195 0.8944299
  vertex -0.42532268 0.30901137 0.8506542
  vertex -0.20318091 0.14761785 0.96794957
 endloop
endfacet
facet normal -0.014375174 0.54811096 0.8362821
 outer loop
  vertex 0.16245556 0.49999526 0.8506544
  vertex -0.052789573 0.6881849 0.72361237
  vertex -0.13819726 0.4253195 0.8944299
 endloop
endfacet
facet normal -0.18759377 0.5773436 0.794659
 outer loop
  vertex -0.052789573 0.6881849 0.72361237
  vertex -0.36180368 0.58777845 0.72361225
  vertex -0.13819726 0.4253195 0.8944299
 endloop
endfacet
facet normal -0.31054673 0.45187727 0.836282
 outer loop
  vertex -0.13819726 0.4253195 0.8944299
  vertex -0.36180368 0.58777845 0.72361225
  vertex -0.42532268 0.30901137 0.8506542
 endloop
endfacet
facet normal -0.4673538 0.45258677 0.7594378
 outer loop
  vertex -0.36180368 0.58777845 0.72361225
  vertex -0.60954666 0.4428564 0.65751886
  vertex -0.42532268 0.30901137 0.8506542
 endloop
endfacet
facet normal 0.071125545 0.76761895 0.6369477
 outer loop
  vertex 0.23282152 0.7165631 0.6575192
  vertex 0.029639274 0.8641842 0.50230193
  vertex -0.052789573 0.6881849 0.72361237
 endloop
endfacet
facet normal -0.10258481 0.7968079 0.5954607
 outer loop
  vertex 0.029639274 0.8641842 0.50230193
  vertex -0.26286882 0.80901164 0.52573764
  vertex -0.052789573 0.6881849 0.72361237
 endloop
endfacet
facet normal -0.22868893 0.7038195 0.6725619
 outer loop
  vertex -0.052789573 0.6881849 0.72361237
  vertex -0.26286882 0.80901164 0.52573764
  vertex -0.36180368 0.58777845 0.72361225
 endloop
endfacet
facet normal -0.38536733 0.7049248 0.5954604
 outer loop
  vertex -0.26286882 0.80901164 0.52573764
  vertex -0.5319409 0.6817124 0.5023017
  vertex -0.36180368 0.58777845 0.72361225
 endloop
endfacet
facet normal -0.5087433 0.579205 0.6369473
 outer loop
  vertex -0.36180368 0.58777845 0.72361225
  vertex -0.5319409 0.6817124 0.5023017
  vertex -0.60954666 0.4428564 0.65751886
 endloop
endfacet
facet normal -0.6153258 0.5602628 0.5545086
 outer loop
  vertex -0.5319409 0.6817124 0.5023017
  vertex -0.7236073 0.5257253 0.44721952
  vertex -0.60954666 0.4428564 0.65751886
 endloop
endfacet
facet normal -0.15581664 0 0.987786
 outer loop
  vertex -0.20318091 0.14761785 0.96794957
  vertex -0.20318091 -0.14761785 0.96794957
  vertex 0 0 1
 endloop
endfacet
facet normal -0.37023383 0.15595044 0.91575456
 outer loop
  vertex -0.42532268 0.30901137 0.8506542
  vertex -0.4472099 0 0.8944291
  vertex -0.20318091 0.14761785 0.96794957
 endloop
endfacet
facet normal -0.574859 0.30461678 0.75943786
 outer loop
  vertex -0.60954666 0.4428564 0.65751886
  vertex -0.6708166 0.16245703 0.7236109
  vertex -0.42532268 0.30901137 0.8506542
 endloop
endfacet
facet normal -0.28847003 0 0.95748895
 outer loop
  vertex -0.20318091 0.14761785 0.96794957
  vertex -0.4472099 0 0.8944291
  vertex -0.20318091 -0.14761785 0.96794957
 endloop
endfacet
facet normal -0.37023383 -0.15595043 0.91575456
 outer loop
  vertex -0.4472099 0 0.8944291
  vertex -0.42532268 -0.30901137 0.8506542
  vertex -0.20318091 -0.14761785 0.96794957
 endloop
endfacet
facet normal -0.52572864 0.1557057 0.83628047
 outer loop
  vertex -0.42532268 0.30901137 0.8506542
  vertex -0.6708166 0.16245703 0.7236109
  vertex -0.4472099 0 0.8944291
 endloop
endfacet
facet normal -0.6070573 0 0.7946581
 outer loop
  vertex -0.6708166 0.16245703 0.7236109
  vertex -0.6708166 -0.16245703 0.7236109
  vertex -0.4472099 0 0.8944291
 endloop
endfacet
facet normal -0.52572864 -0.1557057 0.83628047
 outer loop
  vertex -0.4472099 0 0.8944291
  vertex -0.6708166 -0.16245703 0.7236109
  vertex -0.42532268 -0.30901137 0.8506542
 endloop
endfacet
facet normal -0.5748591 -0.30461678 0.7594378
 outer loop
  vertex -0.6708166 -0.16245703 0.7236109
  vertex -0.60954666 -0.4428564 0.65751886
  vertex -0.42532268 -0.30901137 0.8506542
 endloop
endfacet
facet normal -0.70807076 0.30485272 0.63694626
 outer loop
  vertex -0.60954666 0.4428564 0.65751886
  vertex -0.81272924 0.29523772 0.5023006
  vertex -0.6708166 0.16245703 0.7236109
 endloop
endfacet
facet normal -0.7895097 0.14866632 0.5954601
 outer loop
  vertex -0.81272924 0.29523772 0.5023006
  vertex -0.85064787 0 0.5257359
  vertex -0.6708166 0.16245703 0.7236109
 endloop
endfacet
facet normal -0.74004257 0 0.67256004
 outer loop
  vertex -0.6708166 0.16245703 0.7236109
  vertex -0.85064787 0 0.5257359
  vertex -0.6708166 -0.16245703 0.7236109
 endloop
endfacet
facet normal -0.7895097 -0.14866632 0.5954601
 outer loop
  vertex -0.85064787 0 0.5257359
  vertex -0.81272924 -0.29523772 0.5023006
  vertex -0.6708166 -0.16245703 0.7236109
 endloop
endfacet
facet normal -0.70807076 -0.30485272 0.63694626
 outer loop
  vertex -0.6708166 -0.16245703 0.7236109
  vertex -0.81272924 -0.29523772 0.5023006
  vertex -0.60954666 -0.4428564 0.65751886
 endloop
endfacet
facet normal -0.72299176 -0.4120716 0.55450875
 outer loop
  vertex -0.81272924 -0.29523772 0.5023006
  vertex -0.7236073 -0.5257253 0.44721952
  vertex -0.60954666 -0.4428564 0.65751886
 endloop
endfacet
facet normal -0.048151202 -0.14819048 0.98778594
 outer loop
  vertex -0.20318091 -0.14761785 0.96794957
  vertex 0.07760664 -0.23885272 0.9679497
  vertex 0 0 1
 endloop
endfacet
facet normal -0.26272896 -0.3039198 0.91575444
 outer loop
  vertex -0.42532268 -0.30901137 0.8506542
  vertex -0.13819729 -0.4253195 0.8944299
  vertex -0.20318091 -0.14761785 0.96794957
 endloop
endfacet
facet normal -0.46735373 -0.45258674 0.75943774
 outer loop
  vertex -0.60954666 -0.4428564 0.65751886
  vertex -0.36180368 -0.58777845 0.72361225
  vertex -0.42532268 -0.30901137 0.8506542
 endloop
endfacet
facet normal -0.089143194 -0.27434888 0.9574895
 outer loop
  vertex -0.20318091 -0.14761785 0.96794957
  vertex -0.13819729 -0.4253195 0.8944299
  vertex 0.07760664 -0.23885272 0.9679497
 endloop
endfacet
facet normal 0.033908024 -0.40030476 0.9157545
 outer loop
  vertex -0.13819729 -0.4253195 0.8944299
  vertex 0.16245556 -0.49999526 0.8506544
  vertex 0.07760664 -0.23885272 0.9679497
 endloop
endfacet
facet normal -0.3105468 -0.4518773 0.8362821
 outer loop
  vertex -0.42532268 -0.30901137 0.8506542
  vertex -0.36180368 -0.58777845 0.72361225
  vertex -0.13819729 -0.4253195 0.8944299
 endloop
endfacet
facet normal -0.18759377 -0.5773436 0.794659
 outer loop
  vertex -0.36180368 -0.58777845 0.72361225
  vertex -0.052789573 -0.6881849 0.72361237
  vertex -0.13819729 -0.4253195 0.8944299
 endloop
endfacet
facet normal -0.0143751735 -0.5481109 0.83628213
 outer loop
  vertex -0.13819729 -0.4253195 0.8944299
  vertex -0.052789573 -0.6881849 0.72361237
  vertex 0.16245556 -0.49999526 0.8506544
 endloop
endfacet
facet normal 0.112066194 -0.6408549 0.75943804
 outer loop
  vertex -0.052789573 -0.6881849 0.72361237
  vertex 0.23282152 -0.7165631 0.6575192
  vertex 0.16245556 -0.49999526 0.8506544
 endloop
endfacet
facet normal -0.5087433 -0.5792049 0.63694745
 outer loop
  vertex -0.60954666 -0.4428564 0.65751886
  vertex -0.5319409 -0.68171245 0.5023017
  vertex -0.36180368 -0.58777845 0.72361225
 endloop
endfacet
facet normal -0.38536727 -0.7049247 0.5954606
 outer loop
  vertex -0.5319409 -0.68171245 0.5023017
  vertex -0.26286882 -0.8090117 0.52573764
  vertex -0.36180368 -0.58777845 0.72361225
 endloop
endfacet
facet normal -0.22868891 -0.70381945 0.67256206
 outer loop
  vertex -0.36180368 -0.58777845 0.72361225
  vertex -0.26286882 -0.8090117 0.52573764
  vertex -0.052789573 -0.6881849 0.72361237
 endloop
endfacet
facet normal -0.102584645 -0.7968079 0.59546083
 outer loop
  vertex -0.26286882 -0.8090117 0.52573764
  vertex 0.029639274 -0.8641842 0.50230193
  vertex -0.052789573 -0.6881849 0.72361237
 endloop
endfacet
facet normal 0.071125545 -0.76761895 0.6369477
 outer loop
  vertex -0.052789573 -0.6881849 0.72361237
  vertex 0.029639274 -0.8641842 0.50230193
  vertex 0.23282152 -0.7165631 0.6575192
 endloop
endfacet
facet normal 0.1684861 -0.814943 0.55450904
 outer loop
  vertex 0.029639274 -0.8641842 0.50230193
  vertex 0.27638802 -0.85064924 0.44721985
  vertex 0.23282152 -0.7165631 0.6575192
 endloop
endfacet
facet normal 0.1260603 -0.09158666 0.98778576
 outer loop
  vertex 0.07760664 -0.23885272 0.9679497
  vertex 0.25114697 0 0.96794885
  vertex 0 0 1
 endloop
endfacet
facet normal 0.20785944 -0.34378546 0.9157544
 outer loop
  vertex 0.16245556 -0.49999526 0.8506544
  vertex 0.3618003 -0.26286295 0.8944292
  vertex 0.07760664 -0.23885272 0.9679497
 endloop
endfacet
facet normal 0.2860172 -0.5843357 0.7594379
 outer loop
  vertex 0.23282152 -0.7165631 0.6575192
  vertex 0.4472092 -0.52572817 0.72361165
  vertex 0.16245556 -0.49999526 0.8506544
 endloop
endfacet
facet normal 0.23337594 -0.16955777 0.9574894
 outer loop
  vertex 0.07760664 -0.23885272 0.9679497
  vertex 0.3618003 -0.26286295 0.8944292
  vertex 0.25114697 0 0.96794885
 endloop
endfacet
facet normal 0.39119437 -0.091450244 0.9157531
 outer loop
  vertex 0.3618003 -0.26286295 0.8944292
  vertex 0.5257298 0 0.8506517
  vertex 0.25114697 0 0.96794885
 endloop
endfacet
facet normal 0.33379784 -0.4349846 0.8362819
 outer loop
  vertex 0.16245556 -0.49999526 0.8506544
  vertex 0.4472092 -0.52572817 0.72361165
  vertex 0.3618003 -0.26286295 0.8944292
 endloop
endfacet
facet normal 0.49112037 -0.35681948 0.7946576
 outer loop
  vertex 0.4472092 -0.52572817 0.72361165
  vertex 0.63819355 -0.26286408 0.72361004
  vertex 0.3618003 -0.26286295 0.8944292
 endloop
endfacet
facet normal 0.5168453 -0.18304549 0.8362806
 outer loop
  vertex 0.3618003 -0.26286295 0.8944292
  vertex 0.63819355 -0.26286408 0.72361004
  vertex 0.5257298 0 0.8506517
 endloop
endfacet
facet normal 0.6441245 -0.091450736 0.75943434
 outer loop
  vertex 0.63819355 -0.26286408 0.72361004
  vertex 0.7534417 0 0.65751475
  vertex 0.5257298 0 0.8506517
 endloop
endfacet
facet normal 0.3936473 -0.66282696 0.6369476
 outer loop
  vertex 0.23282152 -0.7165631 0.6575192
  vertex 0.48397142 -0.71656454 0.5023017
  vertex 0.4472092 -0.52572817 0.72361165
 endloop
endfacet
facet normal 0.5513424 -0.58433646 0.5954599
 outer loop
  vertex 0.48397142 -0.71656454 0.5023017
  vertex 0.6881894 -0.49999693 0.5257362
  vertex 0.4472092 -0.52572817 0.72361165
 endloop
endfacet
facet normal 0.59870535 -0.4349863 0.6725614
 outer loop
  vertex 0.4472092 -0.52572817 0.72361165
  vertex 0.6881894 -0.49999693 0.5257362
  vertex 0.63819355 -0.26286408 0.72361004
 endloop
endfacet
facet normal 0.7261137 -0.34378576 0.595458
 outer loop
  vertex 0.6881894 -0.49999693 0.5257362
  vertex 0.83105063 -0.23885341 0.50229865
  vertex 0.63819355 -0.26286408 0.72361004
 endloop
endfacet
facet normal 0.7520308 -0.16955937 0.63694525
 outer loop
  vertex 0.63819355 -0.26286408 0.72361004
  vertex 0.83105063 -0.23885341 0.50229865
  vertex 0.7534417 0 0.65751475
 endloop
endfacet
facet normal 0.8271254 -0.091586515 0.5545049
 outer loop
  vertex 0.83105063 -0.23885341 0.50229865
  vertex 0.8944262 0 0.44721562
  vertex 0.7534417 0 0.65751475
 endloop
endfacet
facet normal 0.90503526 0.14819272 0.39868551
 outer loop
  vertex 0.95662576 0.14761837 0.25114945
  vertex 0.83105063 0.2388534 0.50229865
  vertex 0.8944262 0 0.44721562
 endloop
endfacet
facet normal 0.936571 0.30392286 0.17454413
 outer loop
  vertex 0.95105785 0.30901262 1.7517488e-08
  vertex 0.8618042 0.42532197 0.27639621
  vertex 0.95662576 0.14761837 0.25114945
 endloop
endfacet
facet normal 0.8882668 0.4525896 -0.078387834
 outer loop
  vertex 0.8606976 0.44285753 -0.25115085
  vertex 0.80901927 0.5877821 0
  vertex 0.95105785 0.30901262 1.7517488e-08
 endloop
endfacet
facet normal 0.89626926 0.27434945 0.3484735
 outer loop
  vertex 0.95662576 0.14761837 0.25114945
  vertex 0.8618042 0.42532197 0.27639621
  vertex 0.83105063 0.2388534 0.50229865
 endloop
endfacet
facet normal 0.8039077 0.40030774 0.43987057
 outer loop
  vertex 0.8618042 0.42532197 0.27639621
  vertex 0.6881894 0.4999969 0.5257362
  vertex 0.83105063 0.2388534 0.50229865
 endloop
endfacet
facet normal 0.8868731 0.45187947 0.09623455
 outer loop
  vertex 0.95105785 0.30901262 1.7517488e-08
  vertex 0.80901927 0.5877821 0
  vertex 0.8618042 0.42532197 0.27639621
 endloop
endfacet
facet normal 0.7946554 0.5773485 0.18759404
 outer loop
  vertex 0.80901927 0.5877821 0
  vertex 0.67082053 0.68818915 0.2763974
  vertex 0.8618042 0.42532197 0.27639621
 endloop
endfacet
facet normal 0.75441784 0.5481135 0.36114448
 outer loop
  vertex 0.8618042 0.42532197 0.27639621
  vertex 0.67082053 0.68818915 0.2763974
  vertex 0.6881894 0.4999969 0.5257362
 endloop
endfacet
facet normal 0.6291366 0.6408585 0.4398722
 outer loop
  vertex 0.67082053 0.68818915 0.2763974
  vertex 0.48397142 0.71656454 0.5023017
  vertex 0.6881894 0.4999969 0.5257362
 endloop
endfacet
facet normal 0.79721725 0.57920736 -0.17018652
 outer loop
  vertex 0.8606976 0.44285753 -0.25115085
  vertex 0.6871585 0.6817153 -0.2511519
  vertex 0.80901927 0.5877821 0
 endloop
endfacet
facet normal 0.70493263 0.7049293 -0.07838811
 outer loop
  vertex 0.6871585 0.6817153 -0.2511519
  vertex 0.5877856 0.80901676 -1.7517639e-08
  vertex 0.80901927 0.5877821 0
 endloop
endfacet
facet normal 0.7038264 0.70382327 0.09623498
 outer loop
  vertex 0.80901927 0.5877821 0
  vertex 0.5877856 0.80901676 -1.7517639e-08
  vertex 0.67082053 0.68818915 0.2763974
 endloop
endfacet
facet normal 0.57846546 0.7968132 0.17454644
 outer loop
  vertex 0.5877856 0.80901676 -1.7517639e-08
  vertex 0.4360068 0.8641879 0.25115204
  vertex 0.67082053 0.68818915 0.2763974
 endloop
endfacet
facet normal 0.5378864 0.7676218 0.34847513
 outer loop
  vertex 0.67082053 0.68818915 0.2763974
  vertex 0.4360068 0.8641879 0.25115204
  vertex 0.48397142 0.71656454 0.5023017
 endloop
endfacet
facet normal 0.42060766 0.8149454 0.3986894
 outer loop
  vertex 0.4360068 0.8641879 0.25115204
  vertex 0.27638802 0.85064924 0.44721985
  vertex 0.48397142 0.71656454 0.5023017
 endloop
endfacet
facet normal 0.13872609 0.90653324 0.39868852
 outer loop
  vertex 0.1552151 0.95542204 0.25115153
  vertex 0.029639274 0.8641842 0.50230193
  vertex 0.27638802 0.85064924 0.44721985
 endloop
endfacet
facet normal 0.0003632505 0.9846491 0.17454487
 outer loop
  vertex 0 0.99999994 1.7517587e-08
  vertex -0.13819852 0.9510551 0.27639708
  vertex 0.1552151 0.95542204 0.25115153
 endloop
endfacet
facet normal -0.15595259 0.9846491 -0.0783885
 outer loop
  vertex -0.1552151 0.95542204 -0.25115153
  vertex -0.30901647 0.95105666 -4.9197246e-07
  vertex 0 0.99999994 1.7517587e-08
 endloop
endfacet
facet normal 0.016034923 0.93718046 0.34847614
 outer loop
  vertex 0.1552151 0.95542204 0.25115153
  vertex -0.13819852 0.9510551 0.27639708
  vertex 0.029639274 0.8641842 0.50230193
 endloop
endfacet
facet normal -0.13230056 0.888262 0.43987176
 outer loop
  vertex -0.13819852 0.9510551 0.27639708
  vertex -0.26286882 0.80901164 0.52573764
  vertex 0.029639274 0.8641842 0.50230193
 endloop
endfacet
facet normal -0.15570818 0.98310417 0.09623555
 outer loop
  vertex 0 0.99999994 1.7517587e-08
  vertex -0.30901647 0.95105666 -4.9197246e-07
  vertex -0.13819852 0.9510551 0.27639708
 endloop
endfacet
facet normal -0.30353302 0.93417156 0.18759331
 outer loop
  vertex -0.30901647 0.95105666 -4.9197246e-07
  vertex -0.44721505 0.85064876 0.27639726
  vertex -0.13819852 0.9510551 0.27639708
 endloop
endfacet
facet normal -0.28816304 0.8868682 0.3611465
 outer loop
  vertex -0.13819852 0.9510551 0.27639708
  vertex -0.44721505 0.85064876 0.27639726
  vertex -0.26286882 0.80901164 0.52573764
 endloop
endfacet
facet normal -0.41508284 0.7963785 0.43987206
 outer loop
  vertex -0.44721505 0.85064876 0.27639726
  vertex -0.5319409 0.6817124 0.5023017
  vertex -0.26286882 0.80901164 0.52573764
 endloop
endfacet
facet normal -0.30450696 0.9371832 -0.17018612
 outer loop
  vertex -0.1552151 0.95542204 -0.25115153
  vertex -0.4360068 0.8641879 -0.25115204
  vertex -0.30901647 0.95105666 -4.9197246e-07
 endloop
endfacet
facet normal -0.4525936 0.8882648 -0.0783887
 outer loop
  vertex -0.4360068 0.8641879 -0.25115204
  vertex -0.5877856 0.8090167 -1.7517639e-08
  vertex -0.30901647 0.95105666 -4.9197246e-07
 endloop
endfacet
facet normal -0.45188317 0.8868711 0.09623538
 outer loop
  vertex -0.30901647 0.95105666 -4.9197246e-07
  vertex -0.5877856 0.8090167 -1.7517639e-08
  vertex -0.44721505 0.85064876 0.27639726
 endloop
endfacet
facet normal -0.5790606 0.796381 0.17454547
 outer loop
  vertex -0.5877856 0.8090167 -1.7517639e-08
  vertex -0.6871586 0.6817153 0.25115192
  vertex -0.44721505 0.85064876 0.27639726
 endloop
endfacet
facet normal -0.56383747 0.7487667 0.3484763
 outer loop
  vertex -0.44721505 0.85064876 0.27639726
  vertex -0.6871586 0.6817153 0.25115192
  vertex -0.5319409 0.6817124 0.5023017
 endloop
endfacet
facet normal -0.6450856 0.6518527 0.39868882
 outer loop
  vertex -0.6871586 0.6817153 0.25115192
  vertex -0.7236073 0.5257253 0.44721952
  vertex -0.5319409 0.6817124 0.5023017
 endloop
endfacet
facet normal -0.8192958 0.41207147 0.39868724
 outer loop
  vertex -0.8606976 0.44285753 0.25115085
  vertex -0.81272924 0.29523772 0.5023006
  vertex -0.7236073 0.5257253 0.44721952
 endloop
endfacet
facet normal -0.93634534 0.3046179 0.17454375
 outer loop
  vertex -0.95105785 0.30901262 1.7517488e-08
  vertex -0.94721323 0.16245763 0.2763959
  vertex -0.8606976 0.44285753 0.25115085
 endloop
endfacet
facet normal -0.98464954 0.1559506 -0.078387946
 outer loop
  vertex -0.95662576 0.14761837 -0.25114945
  vertex -0.99999994 -3.60779e-07 6.231637e-07
  vertex -0.95105785 0.30901262 1.7517488e-08
 endloop
endfacet
facet normal -0.886357 0.3048539 0.34847566
 outer loop
  vertex -0.8606976 0.44285753 0.25115085
  vertex -0.94721323 0.16245763 0.2763959
  vertex -0.81272924 0.29523772 0.5023006
 endloop
endfacet
facet normal -0.8856709 0.14866628 0.4398696
 outer loop
  vertex -0.94721323 0.16245763 0.2763959
  vertex -0.85064787 0 0.5257359
  vertex -0.81272924 0.29523772 0.5023006
 endloop
endfacet
facet normal -0.98310435 0.15570621 0.09623583
 outer loop
  vertex -0.95105785 0.30901262 1.7517488e-08
  vertex -0.99999994 -3.60779e-07 6.231637e-07
  vertex -0.94721323 0.16245763 0.2763959
 endloop
endfacet
facet normal -0.98224694 -5.0519753e-07 0.18759246
 outer loop
  vertex -0.99999994 -3.60779e-07 6.231637e-07
  vertex -0.94721293 -0.16245788 0.27639657
  vertex -0.94721323 0.16245763 0.2763959
 endloop
endfacet
facet normal -0.93250936 -9.344228e-08 0.36114576
 outer loop
  vertex -0.94721323 0.16245763 0.2763959
  vertex -0.94721293 -0.16245788 0.27639657
  vertex -0.85064787 0 0.5257359
 endloop
endfacet
facet normal -0.88567084 -0.1486663 0.43986988
 outer loop
  vertex -0.94721293 -0.16245788 0.27639657
  vertex -0.81272924 -0.29523772 0.5023006
  vertex -0.85064787 0 0.5257359
 endloop
endfacet
facet normal -0.9854125 0 -0.17018294
 outer loop
  vertex -0.95662576 0.14761837 -0.25114945
  vertex -0.95662576 -0.14761837 -0.25114945
  vertex -0.99999994 -3.60779e-07 6.231637e-07
 endloop
endfacet
facet normal -0.9846494 -0.15595092 -0.078388184
 outer loop
  vertex -0.95662576 -0.14761837 -0.25114945
  vertex -0.95105785 -0.30901262 -1.7517488e-08
  vertex -0.99999994 -3.60779e-07 6.231637e-07
 endloop
endfacet
facet normal -0.9831043 -0.15570657 0.09623668
 outer loop
  vertex -0.99999994 -3.60779e-07 6.231637e-07
  vertex -0.95105785 -0.30901262 -1.7517488e-08
  vertex -0.94721293 -0.16245788 0.27639657
 endloop
endfacet
facet normal -0.93634534 -0.30461767 0.17454389
 outer loop
  vertex -0.95105785 -0.30901262 -1.7517488e-08
  vertex -0.8606976 -0.44285753 0.25115085
  vertex -0.94721293 -0.16245788 0.27639657
 endloop
endfacet
facet normal -0.88635695 -0.30485407 0.3484758
 outer loop
  vertex -0.94721293 -0.16245788 0.27639657
  vertex -0.8606976 -0.44285753 0.25115085
  vertex -0.81272924 -0.29523772 0.5023006
 endloop
endfacet
facet normal -0.8192958 -0.41207147 0.39868724
 outer loop
  vertex -0.8606976 -0.44285753 0.25115085
  vertex -0.7236073 -0.5257253 0.44721952
  vertex -0.81272924 -0.29523772 0.5023006
 endloop
endfacet
facet normal -0.64508563 -0.65185267 0.39868852
 outer loop
  vertex -0.6871585 -0.6817153 0.2511519
  vertex -0.5319409 -0.68171245 0.5023017
  vertex -0.7236073 -0.5257253 0.44721952
 endloop
endfacet
facet normal -0.5790609 -0.79638076 0.17454563
 outer loop
  vertex -0.5877856 -0.80901676 1.7517639e-08
  vertex -0.44721577 -0.8506484 0.27639684
  vertex -0.6871585 -0.6817153 0.2511519
 endloop
endfacet
facet normal -0.4525938 -0.88826454 -0.07838907
 outer loop
  vertex -0.4360068 -0.8641879 -0.25115204
  vertex -0.30901718 -0.9510564 -7.871547e-07
  vertex -0.5877856 -0.80901676 1.7517639e-08
 endloop
endfacet
facet normal -0.5638376 -0.7487668 0.34847602
 outer loop
  vertex -0.6871585 -0.6817153 0.2511519
  vertex -0.44721577 -0.8506484 0.27639684
  vertex -0.5319409 -0.68171245 0.5023017
 endloop
endfacet
facet normal -0.41508296 -0.79637885 0.4398713
 outer loop
  vertex -0.44721577 -0.8506484 0.27639684
  vertex -0.26286882 -0.8090117 0.52573764
  vertex -0.5319409 -0.68171245 0.5023017
 endloop
endfacet
facet normal -0.45188326 -0.88687104 0.09623578
 outer loop
  vertex -0.5877856 -0.80901676 1.7517639e-08
  vertex -0.30901718 -0.9510564 -7.871547e-07
  vertex -0.44721577 -0.8506484 0.27639684
 endloop
endfacet
facet normal -0.3035341 -0.9341712 0.18759315
 outer loop
  vertex -0.30901718 -0.9510564 -7.871547e-07
  vertex -0.13819925 -0.9510551 0.27639678
  vertex -0.44721577 -0.8506484 0.27639684
 endloop
endfacet
facet normal -0.2881641 -0.88686806 0.36114603
 outer loop
  vertex -0.44721577 -0.8506484 0.27639684
  vertex -0.13819925 -0.9510551 0.27639678
  vertex -0.26286882 -0.8090117 0.52573764
 endloop
endfacet
facet normal -0.1323004 -0.88826215 0.43987155
 outer loop
  vertex -0.13819925 -0.9510551 0.27639678
  vertex 0.029639274 -0.8641842 0.50230193
  vertex -0.26286882 -0.8090117 0.52573764
 endloop
endfacet
facet normal -0.30450693 -0.93718314 -0.17018627
 outer loop
  vertex -0.4360068 -0.8641879 -0.25115204
  vertex -0.1552151 -0.95542204 -0.25115153
  vertex -0.30901718 -0.9510564 -7.871547e-07
 endloop
endfacet
facet normal -0.15595295 -0.9846492 -0.078388296
 outer loop
  vertex -0.1552151 -0.95542204 -0.25115153
  vertex 0 -0.99999994 -1.7517587e-08
  vertex -0.30901718 -0.9510564 -7.871547e-07
 endloop
endfacet
facet normal -0.15570866 -0.9831041 0.096235
 outer loop
  vertex -0.30901718 -0.9510564 -7.871547e-07
  vertex 0 -0.99999994 -1.7517587e-08
  vertex -0.13819925 -0.9510551 0.27639678
 endloop
endfacet
facet normal 0.00036307846 -0.9846491 0.17454493
 outer loop
  vertex 0 -0.99999994 -1.7517587e-08
  vertex 0.1552151 -0.95542204 0.25115153
  vertex -0.13819925 -0.9510551 0.27639678
 endloop
endfacet
facet normal 0.016034516 -0.9371806 0.348476
 outer loop
  vertex -0.13819925 -0.9510551 0.27639678
  vertex 0.1552151 -0.95542204 0.25115153
  vertex 0.029639274 -0.8641842 0.50230193
 endloop
endfacet
facet normal 0.13872609 -0.90653324 0.39868852
 outer loop
  vertex 0.1552151 -0.95542204 0.25115153
  vertex 0.27638802 -0.85064924 0.44721985
  vertex 0.029639274 -0.8641842 0.50230193
 endloop
endfacet
facet normal 0.4206077 -0.8149454 0.3986894
 outer loop
  vertex 0.4360068 -0.8641879 0.25115204
  vertex 0.48397142 -0.71656454 0.5023017
  vertex 0.27638802 -0.85064924 0.44721985
 endloop
endfacet
facet normal 0.57846516 -0.7968136 0.17454603
 outer loop
  vertex 0.5877856 -0.8090167 1.7517639e-08
  vertex 0.67082036 -0.68818974 0.27639616
  vertex 0.4360068 -0.8641879 0.25115204
 endloop
endfacet
facet normal 0.7049316 -0.70493025 -0.07838857
 outer loop
  vertex 0.6871586 -0.6817153 -0.25115192
  vertex 0.8090187 -0.587783 -1.9022905e-06
  vertex 0.5877856 -0.8090167 1.7517639e-08
 endloop
endfacet
facet normal 0.5378867 -0.76762176 0.34847504
 outer loop
  vertex 0.4360068 -0.8641879 0.25115204
  vertex 0.67082036 -0.68818974 0.27639616
  vertex 0.48397142 -0.71656454 0.5023017
 endloop
endfacet
facet normal 0.629137 -0.6408587 0.4398712
 outer loop
  vertex 0.67082036 -0.68818974 0.27639616
  vertex 0.6881894 -0.49999693 0.5257362
  vertex 0.48397142 -0.71656454 0.5023017
 endloop
endfacet
facet normal 0.70382637 -0.70382345 0.09623433
 outer loop
  vertex 0.5877856 -0.8090167 1.7517639e-08
  vertex 0.8090187 -0.587783 -1.9022905e-06
  vertex 0.67082036 -0.68818974 0.27639616
 endloop
endfacet
facet normal 0.794655 -0.57734954 0.18759242
 outer loop
  vertex 0.8090187 -0.587783 -1.9022905e-06
  vertex 0.8618041 -0.4253232 0.27639443
  vertex 0.67082036 -0.68818974 0.27639616
 endloop
endfacet
facet normal 0.75441766 -0.5481142 0.36114398
 outer loop
  vertex 0.67082036 -0.68818974 0.27639616
  vertex 0.8618041 -0.4253232 0.27639443
  vertex 0.6881894 -0.49999693 0.5257362
 endloop
endfacet
facet normal 0.80390817 -0.4003081 0.43986934
 outer loop
  vertex 0.8618041 -0.4253232 0.27639443
  vertex 0.83105063 -0.23885341 0.50229865
  vertex 0.6881894 -0.49999693 0.5257362
 endloop
endfacet
facet normal 0.79721725 -0.5792071 -0.17018785
 outer loop
  vertex 0.6871586 -0.6817153 -0.25115192
  vertex 0.8606976 -0.44285753 -0.25115085
  vertex 0.8090187 -0.587783 -1.9022905e-06
 endloop
endfacet
facet normal 0.88826686 -0.45258954 -0.078387894
 outer loop
  vertex 0.8606976 -0.44285753 -0.25115085
  vertex 0.95105785 -0.30901262 -1.7517488e-08
  vertex 0.8090187 -0.587783 -1.9022905e-06
 endloop
endfacet
facet normal 0.88687277 -0.4518804 0.096232876
 outer loop
  vertex 0.8090187 -0.587783 -1.9022905e-06
  vertex 0.95105785 -0.30901262 -1.7517488e-08
  vertex 0.8618041 -0.4253232 0.27639443
 endloop
endfacet
facet normal 0.93657094 -0.3039228 0.17454407
 outer loop
  vertex 0.95105785 -0.30901262 -1.7517488e-08
  vertex 0.95662576 -0.14761837 0.25114945
  vertex 0.8618041 -0.4253232 0.27639443
 endloop
endfacet
facet normal 0.8962691 -0.27435067 0.34847298
 outer loop
  vertex 0.8618041 -0.4253232 0.27639443
  vertex 0.95662576 -0.14761837 0.25114945
  vertex 0.83105063 -0.23885341 0.50229865
 endloop
endfacet
facet normal 0.90503526 -0.14819272 0.3986855
 outer loop
  vertex 0.95662576 -0.14761837 0.25114945
  vertex 0.8944262 0 0.44721562
  vertex 0.83105063 -0.23885341 0.50229865
 endloop
endfacet
facet normal 0.294548 0.9065333 0.30238843
 outer loop
  vertex 0.4360068 0.8641879 0.25115204
  vertex 0.1552151 0.95542204 0.25115153
  vertex 0.27638802 0.85064924 0.44721985
 endloop
endfacet
facet normal 0.45259368 0.8882647 0.07838899
 outer loop
  vertex 0.5877856 0.80901676 -1.7517639e-08
  vertex 0.3090172 0.9510564 -2.6148812e-14
  vertex 0.4360068 0.8641879 0.25115204
 endloop
endfacet
facet normal 0.57906103 0.79638064 -0.17454556
 outer loop
  vertex 0.6871585 0.6817153 -0.2511519
  vertex 0.4472156 0.8506484 -0.2763977
  vertex 0.5877856 0.80901676 -1.7517639e-08
 endloop
endfacet
facet normal 0.30450693 0.9371832 0.1701858
 outer loop
  vertex 0.4360068 0.8641879 0.25115204
  vertex 0.3090172 0.9510564 -2.6148812e-14
  vertex 0.1552151 0.95542204 0.25115153
 endloop
endfacet
facet normal 0.15595314 0.9846492 0.0783882
 outer loop
  vertex 0.3090172 0.9510564 -2.6148812e-14
  vertex 0 0.99999994 1.7517587e-08
  vertex 0.1552151 0.95542204 0.25115153
 endloop
endfacet
facet normal 0.45188352 0.8868709 -0.09623591
 outer loop
  vertex 0.5877856 0.80901676 -1.7517639e-08
  vertex 0.4472156 0.8506484 -0.2763977
  vertex 0.3090172 0.9510564 -2.6148812e-14
 endloop
endfacet
facet normal 0.3035335 0.9341713 -0.18759362
 outer loop
  vertex 0.4472156 0.8506484 -0.2763977
  vertex 0.13819908 0.95105493 -0.27639753
  vertex 0.3090172 0.9510564 -2.6148812e-14
 endloop
endfacet
facet normal 0.1557084 0.9831041 -0.0962356
 outer loop
  vertex 0.3090172 0.9510564 -2.6148812e-14
  vertex 0.13819908 0.95105493 -0.27639753
  vertex 0 0.99999994 1.7517587e-08
 endloop
endfacet
facet normal -0.00036292893 0.98464906 -0.17454502
 outer loop
  vertex 0.13819908 0.95105493 -0.27639753
  vertex -0.1552151 0.95542204 -0.25115153
  vertex 0 0.99999994 1.7517587e-08
 endloop
endfacet
facet normal 0.56383806 0.7487662 -0.3484763
 outer loop
  vertex 0.6871585 0.6817153 -0.2511519
  vertex 0.5319409 0.68171245 -0.5023017
  vertex 0.4472156 0.8506484 -0.2763977
 endloop
endfacet
facet normal 0.41508284 0.7963783 -0.43987235
 outer loop
  vertex 0.5319409 0.68171245 -0.5023017
  vertex 0.26286882 0.8090117 -0.52573764
  vertex 0.4472156 0.8506484 -0.2763977
 endloop
endfacet
facet normal 0.28816348 0.8868681 -0.36114663
 outer loop
  vertex 0.4472156 0.8506484 -0.2763977
  vertex 0.26286882 0.8090117 -0.52573764
  vertex 0.13819908 0.95105493 -0.27639753
 endloop
endfacet
facet normal 0.13230033 0.8882619 -0.4398721
 outer loop
  vertex 0.26286882 0.8090117 -0.52573764
  vertex -0.029639274 0.8641842 -0.50230193
  vertex 0.13819908 0.95105493 -0.27639753
 endloop
endfacet
facet normal -0.016034855 0.9371805 -0.3484761
 outer loop
  vertex 0.13819908 0.95105493 -0.27639753
  vertex -0.029639274 0.8641842 -0.50230193
  vertex -0.1552151 0.95542204 -0.25115153
 endloop
endfacet
facet normal -0.13872609 0.90653324 -0.39868852
 outer loop
  vertex -0.029639274 0.8641842 -0.50230193
  vertex -0.27638802 0.85064924 -0.44721985
  vertex -0.1552151 0.95542204 -0.25115153
 endloop
endfacet
facet normal -0.7711455 0.5602645 0.3023875
 outer loop
  vertex -0.6871586 0.6817153 0.25115192
  vertex -0.8606976 0.44285753 0.25115085
  vertex -0.7236073 0.5257253 0.44721952
 endloop
endfacet
facet normal -0.70493186 0.70493 0.07838834
 outer loop
  vertex -0.5877856 0.8090167 -1.7517639e-08
  vertex -0.80901843 0.5877833 -7.8446486e-14
  vertex -0.6871586 0.6817153 0.25115192
 endloop
endfacet
facet normal -0.57846475 0.7968139 -0.1745457
 outer loop
  vertex -0.4360068 0.8641879 -0.25115204
  vertex -0.670819 0.6881907 -0.2763973
  vertex -0.5877856 0.8090167 -1.7517639e-08
 endloop
endfacet
facet normal -0.7972173 0.57920724 0.17018652
 outer loop
  vertex -0.6871586 0.6817153 0.25115192
  vertex -0.80901843 0.5877833 -7.8446486e-14
  vertex -0.8606976 0.44285753 0.25115085
 endloop
endfacet
facet normal -0.88826656 0.4525902 0.078387454
 outer loop
  vertex -0.80901843 0.5877833 -7.8446486e-14
  vertex -0.95105785 0.30901262 1.7517488e-08
  vertex -0.8606976 0.44285753 0.25115085
 endloop
endfacet
facet normal -0.7038257 0.70382386 -0.09623535
 outer loop
  vertex -0.5877856 0.8090167 -1.7517639e-08
  vertex -0.670819 0.6881907 -0.2763973
  vertex -0.80901843 0.5877833 -7.8446486e-14
 endloop
endfacet
facet normal -0.79465413 0.57735014 -0.1875942
 outer loop
  vertex -0.670819 0.6881907 -0.2763973
  vertex -0.8618031 0.42532393 -0.27639633
  vertex -0.80901843 0.5877833 -7.8446486e-14
 endloop
endfacet
facet normal -0.8868728 0.45188007 -0.0962344
 outer loop
  vertex -0.80901843 0.5877833 -7.8446486e-14
  vertex -0.8618031 0.42532393 -0.27639633
  vertex -0.95105785 0.30901262 1.7517488e-08
 endloop
endfacet
facet normal -0.93657047 0.303924 -0.17454484
 outer loop
  vertex -0.8618031 0.42532393 -0.27639633
  vertex -0.95662576 0.14761837 -0.25114945
  vertex -0.95105785 0.30901262 1.7517488e-08
 endloop
endfacet
facet normal -0.53788537 0.76762235 -0.34847564
 outer loop
  vertex -0.4360068 0.8641879 -0.25115204
  vertex -0.48397142 0.71656454 -0.5023017
  vertex -0.670819 0.6881907 -0.2763973
 endloop
endfacet
facet normal -0.6291366 0.6408585 -0.43987206
 outer loop
  vertex -0.48397142 0.71656454 -0.5023017
  vertex -0.6881894 0.49999693 -0.5257362
  vertex -0.670819 0.6881907 -0.2763973
 endloop
endfacet
facet normal -0.75441664 0.54811513 -0.36114427
 outer loop
  vertex -0.670819 0.6881907 -0.2763973
  vertex -0.6881894 0.49999693 -0.5257362
  vertex -0.8618031 0.42532393 -0.27639633
 endloop
endfacet
facet normal -0.80390775 0.40030777 -0.43987048
 outer loop
  vertex -0.6881894 0.49999693 -0.5257362
  vertex -0.83105063 0.23885341 -0.50229865
  vertex -0.8618031 0.42532393 -0.27639633
 endloop
endfacet
facet normal -0.896269 0.2743508 -0.34847286
 outer loop
  vertex -0.8618031 0.42532393 -0.27639633
  vertex -0.83105063 0.23885341 -0.50229865
  vertex -0.95662576 0.14761837 -0.25114945
 endloop
endfacet
facet normal -0.90503526 0.14819272 -0.3986855
 outer loop
  vertex -0.83105063 0.23885341 -0.50229865
  vertex -0.8944262 0 -0.44721562
  vertex -0.95662576 0.14761837 -0.25114945
 endloop
endfacet
facet normal -0.77114546 -0.56026465 0.3023874
 outer loop
  vertex -0.8606976 -0.44285753 0.25115085
  vertex -0.6871585 -0.6817153 0.2511519
  vertex -0.7236073 -0.5257253 0.44721952
 endloop
endfacet
facet normal -0.88826656 -0.4525902 0.07838743
 outer loop
  vertex -0.95105785 -0.30901262 -1.7517488e-08
  vertex -0.80901843 -0.5877833 8.031426e-14
  vertex -0.8606976 -0.44285753 0.25115085
 endloop
endfacet
facet normal -0.9365706 -0.30392376 -0.17454475
 outer loop
  vertex -0.95662576 -0.14761837 -0.25114945
  vertex -0.8618032 -0.42532396 -0.27639633
  vertex -0.95105785 -0.30901262 -1.7517488e-08
 endloop
endfacet
facet normal -0.79721725 -0.5792074 0.17018664
 outer loop
  vertex -0.8606976 -0.44285753 0.25115085
  vertex -0.80901843 -0.5877833 8.031426e-14
  vertex -0.6871585 -0.6817153 0.2511519
 endloop
endfacet
facet normal -0.704932 -0.7049298 0.07838863
 outer loop
  vertex -0.80901843 -0.5877833 8.031426e-14
  vertex -0.5877856 -0.80901676 1.7517639e-08
  vertex -0.6871585 -0.6817153 0.2511519
 endloop
endfacet
facet normal -0.8868728 -0.45188004 -0.09623418
 outer loop
  vertex -0.95105785 -0.30901262 -1.7517488e-08
  vertex -0.8618032 -0.42532396 -0.27639633
  vertex -0.80901843 -0.5877833 8.031426e-14
 endloop
endfacet
facet normal -0.79465413 -0.57735014 -0.187594
 outer loop
  vertex -0.8618032 -0.42532396 -0.27639633
  vertex -0.67081904 -0.6881907 -0.2763973
  vertex -0.80901843 -0.5877833 8.031426e-14
 endloop
endfacet
facet normal -0.7038259 -0.7038238 -0.09623529
 outer loop
  vertex -0.80901843 -0.5877833 8.031426e-14
  vertex -0.67081904 -0.6881907 -0.2763973
  vertex -0.5877856 -0.80901676 1.7517639e-08
 endloop
endfacet
facet normal -0.5784646 -0.79681396 -0.17454578
 outer loop
  vertex -0.67081904 -0.6881907 -0.2763973
  vertex -0.4360068 -0.8641879 -0.25115204
  vertex -0.5877856 -0.80901676 1.7517639e-08
 endloop
endfacet
facet normal -0.89626914 -0.27435058 -0.348473
 outer loop
  vertex -0.95662576 -0.14761837 -0.25114945
  vertex -0.83105063 -0.2388534 -0.50229865
  vertex -0.8618032 -0.42532396 -0.27639633
 endloop
endfacet
facet normal -0.8039077 -0.4003077 -0.4398707
 outer loop
  vertex -0.83105063 -0.2388534 -0.50229865
  vertex -0.6881894 -0.4999969 -0.5257362
  vertex -0.8618032 -0.42532396 -0.27639633
 endloop
endfacet
facet normal -0.7544166 -0.5481152 -0.3611446
 outer loop
  vertex -0.8618032 -0.42532396 -0.27639633
  vertex -0.6881894 -0.4999969 -0.5257362
  vertex -0.67081904 -0.6881907 -0.2763973
 endloop
endfacet
facet normal -0.6291366 -0.6408584 -0.43987224
 outer loop
  vertex -0.6881894 -0.4999969 -0.5257362
  vertex -0.48397142 -0.71656454 -0.5023017
  vertex -0.67081904 -0.6881907 -0.2763973
 endloop
endfacet
facet normal -0.53788525 -0.76762235 -0.34847566
 outer loop
  vertex -0.67081904 -0.6881907 -0.2763973
  vertex -0.48397142 -0.71656454 -0.5023017
  vertex -0.4360068 -0.8641879 -0.25115204
 endloop
endfacet
facet normal -0.42060766 -0.8149454 -0.3986894
 outer loop
  vertex -0.48397142 -0.71656454 -0.5023017
  vertex -0.27638802 -0.85064924 -0.44721985
  vertex -0.4360068 -0.8641879 -0.25115204
 endloop
endfacet
facet normal 0.294548 -0.9065333 0.30238846
 outer loop
  vertex 0.1552151 -0.95542204 0.25115153
  vertex 0.4360068 -0.8641879 0.25115204
  vertex 0.27638802 -0.85064924 0.44721985
 endloop
endfacet
facet normal 0.15595311 -0.9846491 0.078388184
 outer loop
  vertex 0 -0.99999994 -1.7517587e-08
  vertex 0.3090172 -0.9510564 2.8016584e-14
  vertex 0.1552151 -0.95542204 0.25115153
 endloop
endfacet
facet normal -0.00036293195 -0.98464906 -0.17454505
 outer loop
  vertex -0.1552151 -0.95542204 -0.25115153
  vertex 0.13819909 -0.95105493 -0.27639753
  vertex 0 -0.99999994 -1.7517587e-08
 endloop
endfacet
facet normal 0.30450693 -0.9371832 0.1701858
 outer loop
  vertex 0.1552151 -0.95542204 0.25115153
  vertex 0.3090172 -0.9510564 2.8016584e-14
  vertex 0.4360068 -0.8641879 0.25115204
 endloop
endfacet
facet normal 0.45259383 -0.8882646 0.07838889
 outer loop
  vertex 0.3090172 -0.9510564 2.8016584e-14
  vertex 0.5877856 -0.8090167 1.7517639e-08
  vertex 0.4360068 -0.8641879 0.25115204
 endloop
endfacet
facet normal 0.1557084 -0.98310405 -0.09623559
 outer loop
  vertex 0 -0.99999994 -1.7517587e-08
  vertex 0.13819909 -0.95105493 -0.27639753
  vertex 0.3090172 -0.9510564 2.8016584e-14
 endloop
endfacet
facet normal 0.3035338 -0.93417114 -0.1875938
 outer loop
  vertex 0.13819909 -0.95105493 -0.27639753
  vertex 0.44721562 -0.8506483 -0.2763977
  vertex 0.3090172 -0.9510564 2.8016584e-14
 endloop
endfacet
facet normal 0.45188364 -0.88687074 -0.09623612
 outer loop
  vertex 0.3090172 -0.9510564 2.8016584e-14
  vertex 0.44721562 -0.8506483 -0.2763977
  vertex 0.5877856 -0.8090167 1.7517639e-08
 endloop
endfacet
facet normal 0.5790607 -0.796381 -0.17454539
 outer loop
  vertex 0.44721562 -0.8506483 -0.2763977
  vertex 0.6871586 -0.6817153 -0.25115192
  vertex 0.5877856 -0.8090167 1.7517639e-08
 endloop
endfacet
facet normal -0.016034855 -0.9371805 -0.3484761
 outer loop
  vertex -0.1552151 -0.95542204 -0.25115153
  vertex -0.029639274 -0.8641842 -0.50230193
  vertex 0.13819909 -0.95105493 -0.27639753
 endloop
endfacet
facet normal 0.1323005 -0.88826185 -0.43987215
 outer loop
  vertex -0.029639274 -0.8641842 -0.50230193
  vertex 0.26286882 -0.80901164 -0.52573764
  vertex 0.13819909 -0.95105493 -0.27639753
 endloop
endfacet
facet normal 0.28816375 -0.88686794 -0.36114663
 outer loop
  vertex 0.13819909 -0.95105493 -0.27639753
  vertex 0.26286882 -0.80901164 -0.52573764
  vertex 0.44721562 -0.8506483 -0.2763977
 endloop
endfacet
facet normal 0.4150828 -0.7963784 -0.4398722
 outer loop
  vertex 0.26286882 -0.80901164 -0.52573764
  vertex 0.5319409 -0.6817124 -0.5023017
  vertex 0.44721562 -0.8506483 -0.2763977
 endloop
endfacet
facet normal 0.56383777 -0.7487664 -0.34847647
 outer loop
  vertex 0.44721562 -0.8506483 -0.2763977
  vertex 0.5319409 -0.6817124 -0.5023017
  vertex 0.6871586 -0.6817153 -0.25115192
 endloop
endfacet
facet normal 0.6450856 -0.6518527 -0.39868882
 outer loop
  vertex 0.5319409 -0.6817124 -0.5023017
  vertex 0.7236073 -0.5257253 -0.44721952
  vertex 0.6871586 -0.6817153 -0.25115192
 endloop
endfacet
facet normal 0.9531855 0 0.30238613
 outer loop
  vertex 0.95662576 -0.14761837 0.25114945
  vertex 0.95662576 0.14761837 0.25114945
  vertex 0.8944262 0 0.44721562
 endloop
endfacet
facet normal 0.9846495 -0.15595113 0.07838829
 outer loop
  vertex 0.95105785 -0.30901262 -1.7517488e-08
  vertex 1 0 0
  vertex 0.95662576 -0.14761837 0.25114945
 endloop
endfacet
facet normal 0.9363453 -0.30461797 -0.17454377
 outer loop
  vertex 0.8606976 -0.44285753 -0.25115085
  vertex 0.94721323 -0.16245754 -0.27639604
  vertex 0.95105785 -0.30901262 -1.7517488e-08
 endloop
endfacet
facet normal 0.98541236 0 0.17018358
 outer loop
  vertex 0.95662576 -0.14761837 0.25114945
  vertex 1 0 0
  vertex 0.95662576 0.14761837 0.25114945
 endloop
endfacet
facet normal 0.9846494 0.1559511 0.07838829
 outer loop
  vertex 1 0 0
  vertex 0.95105785 0.30901262 1.7517488e-08
  vertex 0.95662576 0.14761837 0.25114945
 endloop
endfacet
facet normal 0.98310435 -0.15570639 -0.09623592
 outer loop
  vertex 0.95105785 -0.30901262 -1.7517488e-08
  vertex 0.94721323 -0.16245754 -0.27639604
  vertex 1 0 0
 endloop
endfacet
facet normal 0.98224705 0 -0.18759187
 outer loop
  vertex 0.94721323 -0.16245754 -0.27639604
  vertex 0.94721323 0.16245757 -0.27639604
  vertex 1 0 0
 endloop
endfacet
facet normal 0.98310435 0.1557064 -0.09623589
 outer loop
  vertex 1 0 0
  vertex 0.94721323 0.16245757 -0.27639604
  vertex 0.95105785 0.30901262 1.7517488e-08
 endloop
endfacet
facet normal 0.93634516 0.3046179 -0.17454368
 outer loop
  vertex 0.94721323 0.16245757 -0.27639604
  vertex 0.8606976 0.44285753 -0.25115085
  vertex 0.95105785 0.30901262 1.7517488e-08
 endloop
endfacet
facet normal 0.886357 -0.30485395 -0.34847575
 outer loop
  vertex 0.8606976 -0.44285753 -0.25115085
  vertex 0.81272924 -0.29523772 -0.5023006
  vertex 0.94721323 -0.16245754 -0.27639604
 endloop
endfacet
facet normal 0.88567084 -0.14866629 -0.43986982
 outer loop
  vertex 0.81272924 -0.29523772 -0.5023006
  vertex 0.85064787 0 -0.5257359
  vertex 0.94721323 -0.16245754 -0.27639604
 endloop
endfacet
facet normal 0.93250924 0 -0.36114597
 outer loop
  vertex 0.94721323 -0.16245754 -0.27639604
  vertex 0.85064787 0 -0.5257359
  vertex 0.94721323 0.16245757 -0.27639604
 endloop
endfacet
facet normal 0.88567084 0.1486663 -0.43986982
 outer loop
  vertex 0.85064787 0 -0.5257359
  vertex 0.81272924 0.29523772 -0.5023006
  vertex 0.94721323 0.16245757 -0.27639604
 endloop
endfacet
facet normal 0.886357 0.30485398 -0.34847575
 outer loop
  vertex 0.94721323 0.16245757 -0.27639604
  vertex 0.81272924 0.29523772 -0.5023006
  vertex 0.8606976 0.44285753 -0.25115085
 endloop
endfacet
facet normal 0.8192958 0.41207147 -0.39868724
 outer loop
  vertex 0.81272924 0.29523772 -0.5023006
  vertex 0.7236073 0.5257253 -0.44721952
  vertex 0.8606976 0.44285753 -0.25115085
 endloop
endfacet
facet normal 0.61532587 0.56026256 -0.5545086
 outer loop
  vertex 0.60954666 0.4428564 -0.65751886
  vertex 0.5319409 0.68171245 -0.5023017
  vertex 0.7236073 0.5257253 -0.44721952
 endloop
endfacet
facet normal 0.46735317 0.4525875 -0.7594377
 outer loop
  vertex 0.42532268 0.30901137 -0.8506542
  vertex 0.36180347 0.5877792 -0.7236116
  vertex 0.60954666 0.4428564 -0.65751886
 endloop
endfacet
facet normal 0.26272818 0.3039208 -0.9157543
 outer loop
  vertex 0.20318091 0.14761785 -0.96794957
  vertex 0.1381968 0.4253213 -0.8944291
  vertex 0.42532268 0.30901137 -0.8506542
 endloop
endfacet
facet normal 0.50874305 0.5792049 -0.6369475
 outer loop
  vertex 0.60954666 0.4428564 -0.65751886
  vertex 0.36180347 0.5877792 -0.7236116
  vertex 0.5319409 0.68171245 -0.5023017
 endloop
endfacet
facet normal 0.38536733 0.7049248 -0.59546024
 outer loop
  vertex 0.36180347 0.5877792 -0.7236116
  vertex 0.26286882 0.8090117 -0.52573764
  vertex 0.5319409 0.68171245 -0.5023017
 endloop
endfacet
facet normal 0.3105469 0.45187807 -0.83628154
 outer loop
  vertex 0.42532268 0.30901137 -0.8506542
  vertex 0.1381968 0.4253213 -0.8944291
  vertex 0.36180347 0.5877792 -0.7236116
 endloop
endfacet
facet normal 0.1875933 0.5773454 -0.79465777
 outer loop
  vertex 0.1381968 0.4253213 -0.8944291
  vertex 0.052789096 0.6881863 -0.72361094
  vertex 0.36180347 0.5877792 -0.7236116
 endloop
endfacet
facet normal 0.22868839 0.70381945 -0.67256206
 outer loop
  vertex 0.36180347 0.5877792 -0.7236116
  vertex 0.052789096 0.6881863 -0.72361094
  vertex 0.26286882 0.8090117 -0.52573764
 endloop
endfacet
facet normal 0.10258477 0.7968083 -0.59546024
 outer loop
  vertex 0.052789096 0.6881863 -0.72361094
  vertex -0.029639274 0.8641842 -0.50230193
  vertex 0.26286882 0.8090117 -0.52573764
 endloop
endfacet
facet normal 0.08914358 0.2743501 -0.95748913
 outer loop
  vertex 0.20318091 0.14761785 -0.96794957
  vertex -0.07760664 0.23885271 -0.9679497
  vertex 0.1381968 0.4253213 -0.8944291
 endloop
endfacet
facet normal -0.033907983 0.40030482 -0.9157545
 outer loop
  vertex -0.07760664 0.23885271 -0.9679497
  vertex -0.16245556 0.49999523 -0.8506544
  vertex 0.1381968 0.4253213 -0.8944291
 endloop
endfacet
facet normal 0.014374809 0.5481128 -0.8362809
 outer loop
  vertex 0.1381968 0.4253213 -0.8944291
  vertex -0.16245556 0.49999523 -0.8506544
  vertex 0.052789096 0.6881863 -0.72361094
 endloop
endfacet
facet normal -0.11206564 0.6408551 -0.75943804
 outer loop
  vertex -0.16245556 0.49999523 -0.8506544
  vertex -0.23282152 0.7165631 -0.6575192
  vertex 0.052789096 0.6881863 -0.72361094
 endloop
endfacet
facet normal -0.07112604 0.76761925 -0.6369473
 outer loop
  vertex 0.052789096 0.6881863 -0.72361094
  vertex -0.23282152 0.7165631 -0.6575192
  vertex -0.029639274 0.8641842 -0.50230193
 endloop
endfacet
facet normal -0.1684861 0.814943 -0.55450904
 outer loop
  vertex -0.23282152 0.7165631 -0.6575192
  vertex -0.27638802 0.85064924 -0.44721985
  vertex -0.029639274 0.8641842 -0.50230193
 endloop
endfacet
facet normal -0.34269744 0.75833917 -0.554509
 outer loop
  vertex -0.23282152 0.7165631 -0.6575192
  vertex -0.48397142 0.71656454 -0.5023017
  vertex -0.27638802 0.85064924 -0.44721985
 endloop
endfacet
facet normal -0.28601828 0.5843352 -0.75943786
 outer loop
  vertex -0.16245556 0.49999523 -0.8506544
  vertex -0.44721058 0.5257271 -0.72361153
  vertex -0.23282152 0.7165631 -0.6575192
 endloop
endfacet
facet normal -0.20786025 0.3437852 -0.9157543
 outer loop
  vertex -0.07760664 0.23885271 -0.9679497
  vertex -0.3618012 0.26286253 -0.8944289
  vertex -0.16245556 0.49999523 -0.8506544
 endloop
endfacet
facet normal -0.39364767 0.66282624 -0.6369481
 outer loop
  vertex -0.23282152 0.7165631 -0.6575192
  vertex -0.44721058 0.5257271 -0.72361153
  vertex -0.48397142 0.71656454 -0.5023017
 endloop
endfacet
facet normal -0.55134255 0.5843365 -0.5954597
 outer loop
  vertex -0.44721058 0.5257271 -0.72361153
  vertex -0.6881894 0.49999693 -0.5257362
  vertex -0.48397142 0.71656454 -0.5023017
 endloop
endfacet
facet normal -0.33379817 0.4349844 -0.8362819
 outer loop
  vertex -0.16245556 0.49999523 -0.8506544
  vertex -0.3618012 0.26286253 -0.8944289
  vertex -0.44721058 0.5257271 -0.72361153
 endloop
endfacet
facet normal -0.4911216 0.35681832 -0.7946573
 outer loop
  vertex -0.3618012 0.26286253 -0.8944289
  vertex -0.63819474 0.26286283 -0.72360945
  vertex -0.44721058 0.5257271 -0.72361153
 endloop
endfacet
facet normal -0.59870636 0.434985 -0.6725614
 outer loop
  vertex -0.44721058 0.5257271 -0.72361153
  vertex -0.63819474 0.26286283 -0.72360945
  vertex -0.6881894 0.49999693 -0.5257362
 endloop
endfacet
facet normal -0.72611386 0.34378588 -0.59545773
 outer loop
  vertex -0.63819474 0.26286283 -0.72360945
  vertex -0.83105063 0.23885341 -0.50229865
  vertex -0.6881894 0.49999693 -0.5257362
 endloop
endfacet
facet normal -0.23337637 0.16955811 -0.9574892
 outer loop
  vertex -0.07760664 0.23885271 -0.9679497
  vertex -0.25114697 0 -0.96794885
  vertex -0.3618012 0.26286253 -0.8944289
 endloop
endfacet
facet normal -0.3911944 0.0914501 -0.9157531
 outer loop
  vertex -0.25114697 0 -0.96794885
  vertex -0.5257298 0 -0.8506517
  vertex -0.3618012 0.26286253 -0.8944289
 endloop
endfacet
facet normal -0.516846 0.18304546 -0.8362803
 outer loop
  vertex -0.3618012 0.26286253 -0.8944289
  vertex -0.5257298 0 -0.8506517
  vertex -0.63819474 0.26286283 -0.72360945
 endloop
endfacet
facet normal -0.64412445 0.09144997 -0.75943434
 outer loop
  vertex -0.5257298 0 -0.8506517
  vertex -0.7534417 0 -0.65751475
  vertex -0.63819474 0.26286283 -0.72360945
 endloop
endfacet
facet normal -0.75203156 0.16955872 -0.63694453
 outer loop
  vertex -0.63819474 0.26286283 -0.72360945
  vertex -0.7534417 0 -0.65751475
  vertex -0.83105063 0.23885341 -0.50229865
 endloop
endfacet
facet normal -0.8271254 0.091586515 -0.5545049
 outer loop
  vertex -0.7534417 0 -0.65751475
  vertex -0.8944262 0 -0.44721562
  vertex -0.83105063 0.23885341 -0.50229865
 endloop
endfacet
facet normal -0.8271254 -0.091586515 -0.5545049
 outer loop
  vertex -0.7534417 0 -0.65751475
  vertex -0.83105063 -0.2388534 -0.50229865
  vertex -0.8944262 0 -0.44721562
 endloop
endfacet
facet normal -0.64412445 -0.091450624 -0.75943434
 outer loop
  vertex -0.5257298 0 -0.8506517
  vertex -0.63819456 -0.2628637 -0.72360927
  vertex -0.7534417 0 -0.65751475
 endloop
endfacet
facet normal -0.3911943 -0.09145113 -0.91575307
 outer loop
  vertex -0.25114697 0 -0.96794885
  vertex -0.36180133 -0.26286435 -0.8944284
  vertex -0.5257298 0 -0.8506517
 endloop
endfacet
facet normal -0.7520313 -0.16955896 -0.6369448
 outer loop
  vertex -0.7534417 0 -0.65751475
  vertex -0.63819456 -0.2628637 -0.72360927
  vertex -0.83105063 -0.2388534 -0.50229865
 endloop
endfacet
facet normal -0.7261139 -0.34378597 -0.59545755
 outer loop
  vertex -0.63819456 -0.2628637 -0.72360927
  vertex -0.6881894 -0.4999969 -0.5257362
  vertex -0.83105063 -0.2388534 -0.50229865
 endloop
endfacet
facet normal -0.516846 -0.1830457 -0.8362801
 outer loop
  vertex -0.5257298 0 -0.8506517
  vertex -0.36180133 -0.26286435 -0.8944284
  vertex -0.63819456 -0.2628637 -0.72360927
 endloop
endfacet
facet normal -0.4911218 -0.35682005 -0.79465646
 outer loop
  vertex -0.36180133 -0.26286435 -0.8944284
  vertex -0.44721052 -0.52572864 -0.72361046
  vertex -0.63819456 -0.2628637 -0.72360927
 endloop
endfacet
facet normal -0.598706 -0.43498567 -0.6725612
 outer loop
  vertex -0.63819456 -0.2628637 -0.72360927
  vertex -0.44721052 -0.52572864 -0.72361046
  vertex -0.6881894 -0.4999969 -0.5257362
 endloop
endfacet
facet normal -0.55134296 -0.58433676 -0.595459
 outer loop
  vertex -0.44721052 -0.52572864 -0.72361046
  vertex -0.48397142 -0.71656454 -0.5023017
  vertex -0.6881894 -0.4999969 -0.5257362
 endloop
endfacet
facet normal -0.2333769 -0.16955848 -0.957489
 outer loop
  vertex -0.25114697 0 -0.96794885
  vertex -0.07760664 -0.23885271 -0.9679497
  vertex -0.36180133 -0.26286435 -0.8944284
 endloop
endfacet
facet normal -0.20785967 -0.3437854 -0.9157543
 outer loop
  vertex -0.07760664 -0.23885271 -0.9679497
  vertex -0.16245556 -0.49999523 -0.8506544
  vertex -0.36180133 -0.26286435 -0.8944284
 endloop
endfacet
facet normal -0.33379844 -0.43498605 -0.8362809
 outer loop
  vertex -0.36180133 -0.26286435 -0.8944284
  vertex -0.16245556 -0.49999523 -0.8506544
  vertex -0.44721052 -0.52572864 -0.72361046
 endloop
endfacet
facet normal -0.28601807 -0.5843353 -0.759438
 outer loop
  vertex -0.16245556 -0.49999523 -0.8506544
  vertex -0.23282152 -0.7165631 -0.6575192
  vertex -0.44721052 -0.52572864 -0.72361046
 endloop
endfacet
facet normal -0.39364722 -0.6628272 -0.6369474
 outer loop
  vertex -0.44721052 -0.52572864 -0.72361046
  vertex -0.23282152 -0.7165631 -0.6575192
  vertex -0.48397142 -0.71656454 -0.5023017
 endloop
endfacet
facet normal -0.34269744 -0.75833917 -0.554509
 outer loop
  vertex -0.23282152 -0.7165631 -0.6575192
  vertex -0.27638802 -0.85064924 -0.44721985
  vertex -0.48397142 -0.71656454 -0.5023017
 endloop
endfacet
facet normal 0.72299176 0.41207153 -0.55450875
 outer loop
  vertex 0.81272924 0.29523772 -0.5023006
  vertex 0.60954666 0.4428564 -0.65751886
  vertex 0.7236073 0.5257253 -0.44721952
 endloop
endfacet
facet normal 0.7895101 0.14866632 -0.59545964
 outer loop
  vertex 0.85064787 0 -0.5257359
  vertex 0.670817 0.1624568 -0.72361064
  vertex 0.81272924 0.29523772 -0.5023006
 endloop
endfacet
facet normal 0.7895105 -0.14866635 -0.595459
 outer loop
  vertex 0.81272924 -0.29523772 -0.5023006
  vertex 0.67081755 -0.16245775 -0.72361004
  vertex 0.85064787 0 -0.5257359
 endloop
endfacet
facet normal 0.7080709 0.30485296 -0.63694614
 outer loop
  vertex 0.81272924 0.29523772 -0.5023006
  vertex 0.670817 0.1624568 -0.72361064
  vertex 0.60954666 0.4428564 -0.65751886
 endloop
endfacet
facet normal 0.5748591 0.30461672 -0.75943774
 outer loop
  vertex 0.670817 0.1624568 -0.72361064
  vertex 0.42532268 0.30901137 -0.8506542
  vertex 0.60954666 0.4428564 -0.65751886
 endloop
endfacet
facet normal 0.740043 -1.1962605e-08 -0.6725596
 outer loop
  vertex 0.85064787 0 -0.5257359
  vertex 0.67081755 -0.16245775 -0.72361004
  vertex 0.670817 0.1624568 -0.72361064
 endloop
endfacet
facet normal 0.60705787 -4.4820808e-07 -0.7946577
 outer loop
  vertex 0.67081755 -0.16245775 -0.72361004
  vertex 0.44721097 -7.3795553e-07 -0.8944285
  vertex 0.670817 0.1624568 -0.72361064
 endloop
endfacet
facet normal 0.52572864 0.15570556 -0.8362805
 outer loop
  vertex 0.670817 0.1624568 -0.72361064
  vertex 0.44721097 -7.3795553e-07 -0.8944285
  vertex 0.42532268 0.30901137 -0.8506542
 endloop
endfacet
facet normal 0.37023434 0.15594958 -0.91575444
 outer loop
  vertex 0.44721097 -7.3795553e-07 -0.8944285
  vertex 0.20318091 0.14761785 -0.96794957
  vertex 0.42532268 0.30901137 -0.8506542
 endloop
endfacet
facet normal 0.70807105 -0.30485392 -0.63694555
 outer loop
  vertex 0.81272924 -0.29523772 -0.5023006
  vertex 0.60954666 -0.4428564 -0.65751886
  vertex 0.67081755 -0.16245775 -0.72361004
 endloop
endfacet
facet normal 0.5748588 -0.3046172 -0.75943774
 outer loop
  vertex 0.60954666 -0.4428564 -0.65751886
  vertex 0.42532268 -0.30901137 -0.8506542
  vertex 0.67081755 -0.16245775 -0.72361004
 endloop
endfacet
facet normal 0.5257292 -0.15570629 -0.8362801
 outer loop
  vertex 0.67081755 -0.16245775 -0.72361004
  vertex 0.42532268 -0.30901137 -0.8506542
  vertex 0.44721097 -7.3795553e-07 -0.8944285
 endloop
endfacet
facet normal 0.3702339 -0.15595031 -0.91575456
 outer loop
  vertex 0.42532268 -0.30901137 -0.8506542
  vertex 0.20318091 -0.14761785 -0.96794957
  vertex 0.44721097 -7.3795553e-07 -0.8944285
 endloop
endfacet
facet normal 0.288471 0 -0.95748866
 outer loop
  vertex 0.44721097 -7.3795553e-07 -0.8944285
  vertex 0.20318091 -0.14761785 -0.96794957
  vertex 0.20318091 0.14761785 -0.96794957
 endloop
endfacet
facet normal 0.15581664 0 -0.987786
 outer loop
  vertex 0.20318091 -0.14761785 -0.96794957
  vertex 0 0 -1
  vertex 0.20318091 0.14761785 -0.96794957
 endloop
endfacet
facet normal -0.16848612 -0.8149431 -0.554509
 outer loop
  vertex -0.23282152 -0.7165631 -0.6575192
  vertex -0.029639274 -0.8641842 -0.50230193
  vertex -0.27638802 -0.85064924 -0.44721985
 endloop
endfacet
facet normal -0.11206521 -0.64085513 -0.759438
 outer loop
  vertex -0.16245556 -0.49999523 -0.8506544
  vertex 0.05279035 -0.68818533 -0.7236118
  vertex -0.23282152 -0.7165631 -0.6575192
 endloop
endfacet
facet normal -0.033906955 -0.4003051 -0.91575444
 outer loop
  vertex -0.07760664 -0.23885271 -0.9679497
  vertex 0.13819869 -0.42532063 -0.89442915
  vertex -0.16245556 -0.49999523 -0.8506544
 endloop
endfacet
facet normal -0.07112522 -0.76761866 -0.63694793
 outer loop
  vertex -0.23282152 -0.7165631 -0.6575192
  vertex 0.05279035 -0.68818533 -0.7236118
  vertex -0.029639274 -0.8641842 -0.50230193
 endloop
endfacet
facet normal 0.10258487 -0.79680806 -0.5954606
 outer loop
  vertex 0.05279035 -0.68818533 -0.7236118
  vertex 0.26286882 -0.80901164 -0.52573764
  vertex -0.029639274 -0.8641842 -0.50230193
 endloop
endfacet
facet normal 0.014375393 -0.5481116 -0.8362816
 outer loop
  vertex -0.16245556 -0.49999523 -0.8506544
  vertex 0.13819869 -0.42532063 -0.89442915
  vertex 0.05279035 -0.68818533 -0.7236118
 endloop
endfacet
facet normal 0.18759514 -0.5773447 -0.7946579
 outer loop
  vertex 0.13819869 -0.42532063 -0.89442915
  vertex 0.36180496 -0.58777916 -0.72361094
  vertex 0.05279035 -0.68818533 -0.7236118
 endloop
endfacet
facet normal 0.22868939 -0.70381933 -0.67256194
 outer loop
  vertex 0.05279035 -0.68818533 -0.7236118
  vertex 0.36180496 -0.58777916 -0.72361094
  vertex 0.26286882 -0.80901164 -0.52573764
 endloop
endfacet
facet normal 0.38536748 -0.70492524 -0.59545976
 outer loop
  vertex 0.36180496 -0.58777916 -0.72361094
  vertex 0.5319409 -0.6817124 -0.5023017
  vertex 0.26286882 -0.80901164 -0.52573764
 endloop
endfacet
facet normal 0.089143544 -0.27435 -0.9574892
 outer loop
  vertex -0.07760664 -0.23885271 -0.9679497
  vertex 0.20318091 -0.14761785 -0.96794957
  vertex 0.13819869 -0.42532063 -0.89442915
 endloop
endfacet
facet normal 0.26272902 -0.30391973 -0.9157545
 outer loop
  vertex 0.20318091 -0.14761785 -0.96794957
  vertex 0.42532268 -0.30901137 -0.8506542
  vertex 0.13819869 -0.42532063 -0.89442915
 endloop
endfacet
facet normal 0.31054813 -0.45187843 -0.83628094
 outer loop
  vertex 0.13819869 -0.42532063 -0.89442915
  vertex 0.42532268 -0.30901137 -0.8506542
  vertex 0.36180496 -0.58777916 -0.72361094
 endloop
endfacet
facet normal 0.46735358 -0.45258695 -0.7594377
 outer loop
  vertex 0.42532268 -0.30901137 -0.8506542
  vertex 0.60954666 -0.4428564 -0.65751886
  vertex 0.36180496 -0.58777916 -0.72361094
 endloop
endfacet
facet normal 0.508744 -0.579205 -0.63694686
 outer loop
  vertex 0.36180496 -0.58777916 -0.72361094
  vertex 0.60954666 -0.4428564 -0.65751886
  vertex 0.5319409 -0.6817124 -0.5023017
 endloop
endfacet
facet normal 0.6153258 -0.5602628 -0.5545086
 outer loop
  vertex 0.60954666 -0.4428564 -0.65751886
  vertex 0.7236073 -0.5257253 -0.44721952
  vertex 0.5319409 -0.6817124 -0.5023017
 endloop
endfacet
endsolid 
