{
	"asset":{
		"generator":"Khronos glTF Blender I/O v4.4.55",
		"version":"2.0"
	},
	"scene":0,
	"scenes":[
		{
			"name":"Scene",
			"nodes":[
				0
			]
		}
	],
	"nodes":[
		{
			"mesh":0,
			"name":"Circle"
		}
	],
	"meshes":[
		{
			"name":"Circle",
			"primitives":[
				{
					"attributes":{
						"POSITION":0,
						"NORMAL":1,
						"TEXCOORD_0":2
					},
					"indices":3
				}
			]
		}
	],
	"accessors":[
		{
			"bufferView":0,
			"componentType":5126,
			"count":129,
			"max":[
				1,
				0,
				1
			],
			"min":[
				-1,
				0,
				-1
			],
			"type":"VEC3"
		},
		{
			"bufferView":1,
			"componentType":5126,
			"count":129,
			"type":"VEC3"
		},
		{
			"bufferView":2,
			"componentType":5126,
			"count":129,
			"type":"VEC2"
		},
		{
			"bufferView":3,
			"componentType":5123,
			"count":384,
			"type":"SCALAR"
		}
	],
	"bufferViews":[
		{
			"buffer":0,
			"byteLength":1548,
			"byteOffset":0,
			"target":34962
		},
		{
			"buffer":0,
			"byteLength":1548,
			"byteOffset":1548,
			"target":34962
		},
		{
			"buffer":0,
			"byteLength":1032,
			"byteOffset":3096,
			"target":34962
		},
		{
			"buffer":0,
			"byteLength":768,
			"byteOffset":4128,
			"target":34963
		}
	],
	"buffers":[
		{
			"byteLength":4896,
			"uri":"circle_4res.bin"
		}
	]
}
