{
	"asset":{
		"generator":"Khronos glTF Blender I/O v4.4.55",
		"version":"2.0"
	},
	"scene":0,
	"scenes":[
		{
			"name":"Scene",
			"nodes":[
				0
			]
		}
	],
	"nodes":[
		{
			"mesh":0,
			"name":"Cylinder"
		}
	],
	"meshes":[
		{
			"name":"Cylinder",
			"primitives":[
				{
					"attributes":{
						"POSITION":0,
						"NORMAL":1,
						"TEXCOORD_0":2
					},
					"indices":3
				}
			]
		}
	],
	"accessors":[
		{
			"bufferView":0,
			"componentType":5126,
			"count":770,
			"max":[
				1,
				1,
				1
			],
			"min":[
				-1,
				-1,
				-1
			],
			"type":"VEC3"
		},
		{
			"bufferView":1,
			"componentType":5126,
			"count":770,
			"type":"VEC3"
		},
		{
			"bufferView":2,
			"componentType":5126,
			"count":770,
			"type":"VEC2"
		},
		{
			"bufferView":3,
			"componentType":5123,
			"count":1536,
			"type":"SCALAR"
		}
	],
	"bufferViews":[
		{
			"buffer":0,
			"byteLength":9240,
			"byteOffset":0,
			"target":34962
		},
		{
			"buffer":0,
			"byteLength":9240,
			"byteOffset":9240,
			"target":34962
		},
		{
			"buffer":0,
			"byteLength":6160,
			"byteOffset":18480,
			"target":34962
		},
		{
			"buffer":0,
			"byteLength":3072,
			"byteOffset":24640,
			"target":34963
		}
	],
	"buffers":[
		{
			"byteLength":27712,
			"uri":"cylinder_4res.bin"
		}
	]
}
