{
	"asset":{
		"generator":"Khronos glTF Blender I/O v4.4.55",
		"version":"2.0"
	},
	"scene":0,
	"scenes":[
		{
			"name":"Scene",
			"nodes":[
				0
			]
		}
	],
	"nodes":[
		{
			"mesh":0,
			"name":"Sphere"
		}
	],
	"meshes":[
		{
			"name":"Sphere",
			"primitives":[
				{
					"attributes":{
						"POSITION":0,
						"NORMAL":1,
						"TEXCOORD_0":2
					},
					"indices":3
				}
			]
		}
	],
	"accessors":[
		{
			"bufferView":0,
			"componentType":5126,
			"count":32512,
			"max":[
				0.9999995827674866,
				1,
				0.9999992251396179
			],
			"min":[
				-0.9999986886978149,
				-1,
				-0.9999983310699463
			],
			"type":"VEC3"
		},
		{
			"bufferView":1,
			"componentType":5126,
			"count":32512,
			"type":"VEC3"
		},
		{
			"bufferView":2,
			"componentType":5126,
			"count":32512,
			"type":"VEC2"
		},
		{
			"bufferView":3,
			"componentType":5123,
			"count":48384,
			"type":"SCALAR"
		}
	],
	"bufferViews":[
		{
			"buffer":0,
			"byteLength":390144,
			"byteOffset":0,
			"target":34962
		},
		{
			"buffer":0,
			"byteLength":390144,
			"byteOffset":390144,
			"target":34962
		},
		{
			"buffer":0,
			"byteLength":260096,
			"byteOffset":780288,
			"target":34962
		},
		{
			"buffer":0,
			"byteLength":96768,
			"byteOffset":1040384,
			"target":34963
		}
	],
	"buffers":[
		{
			"byteLength":1137152,
			"uri":"sphere_uv_4res.bin"
		}
	]
}
